<svg xmlns="http://www.w3.org/2000/svg" viewBox="0 0 330 330"><path fill="currentColor" d="M0 0h70v10H0zm110 0h50v10h-50zm60 0h40v10h-40zm60 0h10v10h-10zm30 0h70v10h-70zM0 10h10v10H0zm60 0h10v10H60zm20 0h10v10H80zm20 0h20v10h-20zm30 0h10v10h-10zm30 0h10v10h-10zm20 0h10v10h-10zm30 0h40v10h-40zm50 0h10v10h-10zm60 0h10v10h-10zM0 20h10v10H0zm20 0h30v10H20zm40 0h10v10H60zm20 0h10v10H80zm20 0h10v10h-10zm20 0h10v10h-10zm30 0h10v10h-10zm20 0h10v10h-10zm40 0h20v10h-20zm50 0h10v10h-10zm20 0h30v10h-30zm40 0h10v10h-10zM0 30h10v10H0zm20 0h30v10H20zm40 0h10v10H60zm50 0h20v10h-20zm90 0h30v10h-30zm60 0h10v10h-10zm20 0h30v10h-30zm40 0h10v10h-10zM0 40h10v10H0zm20 0h30v10H20zm40 0h10v10H60zm60 0h10v10h-10zm20 0h10v10h-10zm20 0h20v10h-20zm40 0h20v10h-20zm30 0h10v10h-10zm30 0h10v10h-10zm20 0h30v10h-30zm40 0h10v10h-10zM0 50h10v10H0zm60 0h10v10H60zm30 0h10v10H90zm20 0h20v10h-20zm30 0h30v10h-30zm40 0h50v10h-50zm60 0h10v10h-10zm20 0h10v10h-10zm60 0h10v10h-10zM0 60h70v10H0zm80 0h10v10H80zm20 0h10v10h-10zm20 0h10v10h-10zm20 0h10v10h-10zm20 0h10v10h-10zm20 0h10v10h-10zm20 0h10v10h-10zm20 0h10v10h-10zm20 0h10v10h-10zm20 0h70v10h-70zM140 70h10v10h-10zm20 0h30v10h-30zm40 0h10v10h-10zm20 0h20v10h-20zM10 80h30v10H10zm40 0h20v10H50zm40 0h10v10H90zm60 0h70v10h-70zm150 0h20v10h-20zM0 90h60v10H0zm70 0h20v10H70zm50 0h10v10h-10zm20 0h30v10h-30zm40 0h40v10h-40zm50 0h10v10h-10zm30 0h20v10h-20zm30 0h20v10h-20zm30 0h10v10h-10zM40 100h30v10H40zm40 0h10v10H80zm30 0h10v10h-10zm30 0h40v10h-40zm90 0h10v10h-10zm30 0h40v10h-40zm50 0h20v10h-20zM10 110h20v10H10zm40 0h10v10H50zm20 0h10v10H70zm30 0h10v10h-10zm20 0h20v10h-20zm30 0h10v10h-10zm30 0h10v10h-10zm20 0h10v10h-10zm40 0h10v10h-10zm20 0h20v10h-20zm30 0h10v10h-10zm30 0h10v10h-10zM10 120h60v10H10zm70 0h10v10H80zm20 0h70v10h-70zm80 0h20v10h-20zm30 0h10v10h-10zm30 0h20v10h-20zm30 0h30v10h-30zM0 130h30v10H0zm70 0h10v10H70zm20 0h10v10H90zm20 0h10v10h-10zm20 0h20v10h-20zm50 0h10v10h-10zm30 0h40v10h-40zm60 0h10v10h-10zm20 0h30v10h-30zM10 140h40v10H10zm50 0h40v10H60zm50 0h10v10h-10zm20 0h10v10h-10zm20 0h10v10h-10zm20 0h10v10h-10zm40 0h10v10h-10zm20 0h10v10h-10zm30 0h10v10h-10zM0 150h10v10H0zm30 0h30v10H30zm40 0h20v10H70zm40 0h10v10h-10zm50 0h20v10h-20zm30 0h50v10h-50zm60 0h30v10h-30zm50 0h10v10h-10zM20 160h10v10H20zm20 0h10v10H40zm20 0h50v10H60zm60 0h10v10h-10zm20 0h30v10h-30zm50 0h30v10h-30zm60 0h20v10h-20zm30 0h30v10h-30zM0 170h20v10H0zm50 0h10v10H50zm20 0h10v10H70zm30 0h10v10h-10zm20 0h10v10h-10zm20 0h30v10h-30zm70 0h40v10h-40zm50 0h10v10h-10zm20 0h20v10h-20zm30 0h20v10h-20zM0 180h20v10H0zm40 0h10v10H40zm20 0h10v10H60zm40 0h10v10h-10zm50 0h20v10h-20zm50 0h10v10h-10zm20 0h10v10h-10zm20 0h50v10h-50zm60 0h20v10h-20zM0 190h10v10H0zm20 0h10v10H20zm20 0h10v10H40zm40 0h30v10H80zm40 0h10v10h-10zm20 0h10v10h-10zm40 0h10v10h-10zm30 0h10v10h-10zm30 0h20v10h-20zm40 0h10v10h-10zM0 200h10v10H0zm20 0h30v10H20zm40 0h10v10H60zm30 0h10v10H90zm30 0h10v10h-10zm50 0h10v10h-10zm30 0h10v10h-10zm30 0h10v10h-10zm40 0h10v10h-10zm20 0h30v10h-30zM0 210h10v10H0zm20 0h20v10H20zm50 0h20v10H70zm30 0h10v10h-10zm30 0h10v10h-10zm40 0h20v10h-20zm70 0h10v10h-10zm20 0h10v10h-10zm30 0h10v10h-10zm30 0h10v10h-10zM20 220h20v10H20zm30 0h20v10H50zm30 0h40v10H80zm60 0h30v10h-30zm70 0h40v10h-40zm60 0h10v10h-10zm30 0h30v10h-30zM10 230h30v10H10zm40 0h10v10H50zm20 0h20v10H70zm30 0h50v10h-50zm70 0h10v10h-10zm20 0h10v10h-10zm30 0h10v10h-10zm20 0h10v10h-10zm40 0h20v10h-20zm30 0h20v10h-20zM0 240h10v10H0zm20 0h20v10H20zm40 0h10v10H60zm50 0h50v10h-50zm110 0h10v10h-10zm20 0h50v10h-50zM80 250h10v10H80zm50 0h20v10h-20zm40 0h30v10h-30zm60 0h20v10h-20zm50 0h20v10h-20zm30 0h10v10h-10zM0 260h70v10H0zm90 0h10v10H90zm20 0h10v10h-10zm40 0h30v10h-30zm40 0h20v10h-20zm30 0h30v10h-30zm40 0h10v10h-10zm20 0h10v10h-10zM0 270h10v10H0zm60 0h10v10H60zm20 0h40v10H80zm70 0h20v10h-20zm40 0h60v10h-60zm90 0h40v10h-40zM0 280h10v10H0zm20 0h30v10H20zm40 0h10v10H60zm30 0h10v10H90zm30 0h10v10h-10zm20 0h20v10h-20zm30 0h10v10h-10zm20 0h20v10h-20zm40 0h60v10h-60zm70 0h10v10h-10zm20 0h10v10h-10zM0 290h10v10H0zm20 0h30v10H20zm40 0h10v10H60zm20 0h30v10H80zm40 0h20v10h-20zm40 0h50v10h-50zm70 0h20v10h-20zm40 0h10v10h-10zm40 0h20v10h-20zM0 300h10v10H0zm20 0h30v10H20zm40 0h10v10H60zm20 0h40v10H80zm50 0h20v10h-20zm60 0h10v10h-10zm40 0h10v10h-10zm30 0h20v10h-20zM0 310h10v10H0zm60 0h10v10H60zm20 0h20v10H80zm50 0h30v10h-30zm50 0h20v10h-20zm40 0h70v10h-70zm100 0h10v10h-10zM0 320h70v10H0zm100 0h30v10h-30zm40 0h10v10h-10zm30 0h20v10h-20zm40 0h10v10h-10zm20 0h10v10h-10zm20 0h10v10h-10zm30 0h10v10h-10zm20 0h10v10h-10z"/></svg>