<svg xmlns="http://www.w3.org/2000/svg" viewBox="0 0 330 330"><path fill="currentColor" d="M0 0h70v10H0zM110 0h50v10h-50zM170 0h40v10h-40zM230 0h10v10h-10zM260 0h70v10h-70zM0 10h10v10H0zM60 10h10v10H60zM80 10h10v10H80zM100 10h20v10h-20zM130 10h10v10h-10zM160 10h10v10h-10zM180 10h10v10h-10zM210 10h40v10h-40zM260 10h10v10h-10zM320 10h10v10h-10zM0 20h10v10H0zM20 20h30v10H20zM60 20h10v10H60zM80 20h10v10H80zM100 20h10v10h-10zM120 20h10v10h-10zM150 20h10v10h-10zM170 20h10v10h-10zM210 20h20v10h-20zM260 20h10v10h-10zM280 20h30v10h-30zM320 20h10v10h-10zM0 30h10v10H0zM20 30h30v10H20zM60 30h10v10H60zM110 30h20v10h-20zM200 30h30v10h-30zM260 30h10v10h-10zM280 30h30v10h-30zM320 30h10v10h-10zM0 40h10v10H0zM20 40h30v10H20zM60 40h10v10H60zM120 40h10v10h-10zM140 40h10v10h-10zM160 40h20v10h-20zM200 40h20v10h-20zM230 40h10v10h-10zM260 40h10v10h-10zM280 40h30v10h-30zM320 40h10v10h-10zM0 50h10v10H0zM60 50h10v10H60zM90 50h10v10H90zM110 50h20v10h-20zM140 50h30v10h-30zM180 50h50v10h-50zM240 50h10v10h-10zM260 50h10v10h-10zM320 50h10v10h-10zM0 60h70v10H0zM80 60h10v10H80zM100 60h10v10h-10zM120 60h10v10h-10zM140 60h10v10h-10zM160 60h10v10h-10zM180 60h10v10h-10zM200 60h10v10h-10zM220 60h10v10h-10zM240 60h10v10h-10zM260 60h70v10h-70zM140 70h10v10h-10zM160 70h30v10h-30zM200 70h10v10h-10zM220 70h20v10h-20zM10 80h30v10H10zM50 80h20v10H50zM90 80h10v10H90zM150 80h70v10h-70zM300 80h20v10h-20zM0 90h60v10H0zM70 90h20v10H70zM120 90h10v10h-10zM140 90h30v10h-30zM180 90h40v10h-40zM230 90h10v10h-10zM260 90h20v10h-20zM290 90h20v10h-20zM320 90h10v10h-10zM40 100h30v10H40zM80 100h10v10H80zM110 100h10v10h-10zM140 100h40v10h-40zM230 100h10v10h-10zM260 100h40v10h-40zM310 100h20v10h-20zM10 110h20v10H10zM50 110h10v10H50zM70 110h10v10H70zM100 110h10v10h-10zM120 110h20v10h-20zM150 110h10v10h-10zM180 110h10v10h-10zM200 110h10v10h-10zM240 110h10v10h-10zM260 110h20v10h-20zM290 110h10v10h-10zM320 110h10v10h-10zM10 120h60v10H10zM80 120h10v10H80zM100 120h70v10h-70zM180 120h20v10h-20zM210 120h10v10h-10zM240 120h20v10h-20zM270 120h30v10h-30zM0 130h30v10H0zM70 130h10v10H70zM90 130h10v10H90zM110 130h10v10h-10zM130 130h20v10h-20zM180 130h10v10h-10zM210 130h40v10h-40zM270 130h10v10h-10zM290 130h30v10h-30zM10 140h40v10H10zM60 140h40v10H60zM110 140h10v10h-10zM130 140h10v10h-10zM150 140h10v10h-10zM170 140h10v10h-10zM210 140h10v10h-10zM230 140h10v10h-10zM260 140h10v10h-10zM0 150h10v10H0zM30 150h30v10H30zM70 150h20v10H70zM110 150h10v10h-10zM160 150h20v10h-20zM190 150h50v10h-50zM250 150h30v10h-30zM300 150h10v10h-10zM20 160h10v10H20zM40 160h10v10H40zM60 160h50v10H60zM120 160h10v10h-10zM140 160h30v10h-30zM190 160h30v10h-30zM250 160h20v10h-20zM280 160h30v10h-30zM0 170h20v10H0zM50 170h10v10H50zM70 170h10v10H70zM100 170h10v10h-10zM120 170h10v10h-10zM140 170h30v10h-30zM210 170h40v10h-40zM260 170h10v10h-10zM280 170h20v10h-20zM310 170h20v10h-20zM0 180h20v10H0zM40 180h10v10H40zM60 180h10v10H60zM100 180h10v10h-10zM150 180h20v10h-20zM200 180h10v10h-10zM220 180h10v10h-10zM240 180h50v10h-50zM300 180h20v10h-20zM0 190h10v10H0zM20 190h10v10H20zM40 190h10v10H40zM80 190h30v10H80zM120 190h10v10h-10zM140 190h10v10h-10zM180 190h10v10h-10zM210 190h10v10h-10zM240 190h20v10h-20zM280 190h10v10h-10zM0 200h10v10H0zM20 200h30v10H20zM60 200h10v10H60zM90 200h10v10H90zM120 200h10v10h-10zM170 200h10v10h-10zM200 200h10v10h-10zM230 200h10v10h-10zM270 200h10v10h-10zM290 200h30v10h-30zM0 210h10v10H0zM20 210h20v10H20zM70 210h20v10H70zM100 210h10v10h-10zM130 210h10v10h-10zM170 210h20v10h-20zM240 210h10v10h-10zM260 210h10v10h-10zM290 210h10v10h-10zM320 210h10v10h-10zM20 220h20v10H20zM50 220h20v10H50zM80 220h40v10H80zM140 220h30v10h-30zM210 220h40v10h-40zM270 220h10v10h-10zM300 220h30v10h-30zM10 230h30v10H10zM50 230h10v10H50zM70 230h20v10H70zM100 230h50v10h-50zM170 230h10v10h-10zM190 230h10v10h-10zM220 230h10v10h-10zM240 230h10v10h-10zM280 230h20v10h-20zM310 230h20v10h-20zM0 240h10v10H0zM20 240h20v10H20zM60 240h10v10H60zM110 240h50v10h-50zM220 240h10v10h-10zM240 240h50v10h-50zM80 250h10v10H80zM130 250h20v10h-20zM170 250h30v10h-30zM230 250h20v10h-20zM280 250h20v10h-20zM310 250h10v10h-10zM0 260h70v10H0zM90 260h10v10H90zM110 260h10v10h-10zM150 260h30v10h-30zM190 260h20v10h-20zM220 260h30v10h-30zM260 260h10v10h-10zM280 260h10v10h-10zM0 270h10v10H0zM60 270h10v10H60zM80 270h40v10H80zM150 270h20v10h-20zM190 270h60v10h-60zM280 270h40v10h-40zM0 280h10v10H0zM20 280h30v10H20zM60 280h10v10H60zM90 280h10v10H90zM120 280h10v10h-10zM140 280h20v10h-20zM170 280h10v10h-10zM190 280h20v10h-20zM230 280h60v10h-60zM300 280h10v10h-10zM320 280h10v10h-10zM0 290h10v10H0zM20 290h30v10H20zM60 290h10v10H60zM80 290h30v10H80zM120 290h20v10h-20zM160 290h50v10h-50zM230 290h20v10h-20zM270 290h10v10h-10zM310 290h20v10h-20zM0 300h10v10H0zM20 300h30v10H20zM60 300h10v10H60zM80 300h40v10H80zM130 300h20v10h-20zM190 300h10v10h-10zM230 300h10v10h-10zM260 300h20v10h-20zM0 310h10v10H0zM60 310h10v10H60zM80 310h20v10H80zM130 310h30v10h-30zM180 310h20v10h-20zM220 310h70v10h-70zM320 310h10v10h-10zM0 320h70v10H0zM100 320h30v10h-30zM140 320h10v10h-10zM170 320h20v10h-20zM210 320h10v10h-10zM230 320h10v10h-10zM250 320h10v10h-10zM280 320h10v10h-10zM300 320h10v10h-10z"/></svg>
