<svg width="189" height="41" viewBox="0 0 189 41" fill="none" xmlns="http://www.w3.org/2000/svg">
<g clip-path="url(#clip0_272_259)">
<path d="M169 1.14014H20C9.23045 1.14014 0.5 9.87058 0.5 20.6401C0.5 31.4097 9.23045 40.1401 20 40.1401H169C179.77 40.1401 188.5 31.4097 188.5 20.6401C188.5 9.87058 179.77 1.14014 169 1.14014Z" fill="white"/>
<mask id="mask0_272_259" style="mask-type:luminance" maskUnits="userSpaceOnUse" x="12" y="10" width="20" height="21">
<path d="M32 10.6401H12V30.6401H32V10.6401Z" fill="white"/>
</mask>
<g mask="url(#mask0_272_259)">
<path d="M31.6 20.8673C31.6 20.1582 31.5364 19.4764 31.4182 18.8218H22V22.69H27.3818C27.15 23.94 26.4455 24.9991 25.3864 25.7082V28.2173H28.6182C30.5091 26.4764 31.6 23.9127 31.6 20.8673Z" fill="#4285F4"/>
<path d="M22.0001 30.64C24.7001 30.64 26.9637 29.7445 28.6182 28.2173L25.3864 25.7082C24.491 26.3082 23.3455 26.6627 22.0001 26.6627C19.3955 26.6627 17.191 24.9036 16.4046 22.54H13.0637V25.1309C14.7092 28.3991 18.091 30.64 22.0001 30.64Z" fill="#34A853"/>
<path d="M16.4045 22.5403C16.2045 21.9403 16.0909 21.2994 16.0909 20.6403C16.0909 19.9812 16.2045 19.3403 16.4045 18.7403V16.1494H13.0636C12.3864 17.4994 12 19.0267 12 20.6403C12 22.2539 12.3864 23.7812 13.0636 25.1312L16.4045 22.5403Z" fill="#FBBC04"/>
<path d="M22.0001 14.6174C23.4682 14.6174 24.7864 15.1219 25.8228 16.1128L28.691 13.2446C26.9592 11.631 24.6955 10.6401 22.0001 10.6401C18.091 10.6401 14.7092 12.881 13.0637 16.1492L16.4046 18.7401C17.191 16.3765 19.3955 14.6174 22.0001 14.6174Z" fill="#E94235"/>
</g>
<path d="M48.8906 22.3999H50.5996C50.5449 23.0516 50.3626 23.6326 50.0527 24.143C49.7428 24.6489 49.3076 25.0477 48.7471 25.3393C48.1865 25.631 47.5052 25.7768 46.7031 25.7768C46.0879 25.7768 45.5342 25.6674 45.042 25.4487C44.5498 25.2254 44.1283 24.9109 43.7773 24.5053C43.4264 24.0952 43.1576 23.6007 42.9707 23.0219C42.7884 22.4432 42.6973 21.796 42.6973 21.0805V20.2534C42.6973 19.5379 42.7907 18.8908 42.9775 18.312C43.1689 17.7332 43.4424 17.2387 43.7979 16.8286C44.1533 16.4139 44.5794 16.0971 45.0762 15.8784C45.5775 15.6596 46.1403 15.5503 46.7646 15.5503C47.5576 15.5503 48.2275 15.6961 48.7744 15.9878C49.3213 16.2794 49.7451 16.6827 50.0459 17.1977C50.3512 17.7127 50.5381 18.3029 50.6064 18.9682H48.8975C48.8519 18.5398 48.7516 18.173 48.5967 17.8676C48.4463 17.5623 48.223 17.3299 47.9268 17.1704C47.6305 17.0063 47.2432 16.9243 46.7646 16.9243C46.3727 16.9243 46.0309 16.9972 45.7393 17.143C45.4476 17.2889 45.2038 17.5031 45.0078 17.7856C44.8118 18.0682 44.6637 18.4168 44.5635 18.8315C44.4678 19.2417 44.4199 19.7111 44.4199 20.2397V21.0805C44.4199 21.5818 44.4632 22.0376 44.5498 22.4477C44.641 22.8533 44.7777 23.2019 44.96 23.4936C45.1468 23.7853 45.3838 24.0109 45.6709 24.1704C45.958 24.3299 46.3021 24.4096 46.7031 24.4096C47.1908 24.4096 47.585 24.3322 47.8857 24.1772C48.1911 24.0223 48.4212 23.7967 48.5762 23.5005C48.7357 23.1997 48.8405 22.8328 48.8906 22.3999ZM51.6797 22.0239V21.8667C51.6797 21.3335 51.7572 20.839 51.9121 20.3833C52.0671 19.923 52.2904 19.5242 52.582 19.187C52.8783 18.8452 53.2383 18.5809 53.6621 18.394C54.0905 18.2026 54.5736 18.1069 55.1113 18.1069C55.6536 18.1069 56.1367 18.2026 56.5605 18.394C56.9889 18.5809 57.3512 18.8452 57.6475 19.187C57.9437 19.5242 58.1693 19.923 58.3242 20.3833C58.4792 20.839 58.5566 21.3335 58.5566 21.8667V22.0239C58.5566 22.5571 58.4792 23.0516 58.3242 23.5073C58.1693 23.963 57.9437 24.3618 57.6475 24.7036C57.3512 25.0408 56.9912 25.3051 56.5674 25.4965C56.1436 25.6834 55.6628 25.7768 55.125 25.7768C54.5827 25.7768 54.0973 25.6834 53.6689 25.4965C53.2451 25.3051 52.8851 25.0408 52.5889 24.7036C52.2926 24.3618 52.0671 23.963 51.9121 23.5073C51.7572 23.0516 51.6797 22.5571 51.6797 22.0239ZM53.3271 21.8667V22.0239C53.3271 22.3566 53.3613 22.671 53.4297 22.9672C53.498 23.2635 53.6051 23.5232 53.751 23.7465C53.8968 23.9699 54.0837 24.1453 54.3115 24.2729C54.5394 24.4005 54.8105 24.4643 55.125 24.4643C55.4303 24.4643 55.6947 24.4005 55.918 24.2729C56.1458 24.1453 56.3327 23.9699 56.4785 23.7465C56.6243 23.5232 56.7314 23.2635 56.7998 22.9672C56.8727 22.671 56.9092 22.3566 56.9092 22.0239V21.8667C56.9092 21.5385 56.8727 21.2286 56.7998 20.937C56.7314 20.6408 56.6221 20.3787 56.4717 20.1508C56.3258 19.923 56.139 19.7452 55.9111 19.6176C55.6878 19.4855 55.4212 19.4194 55.1113 19.4194C54.8014 19.4194 54.5326 19.4855 54.3047 19.6176C54.0814 19.7452 53.8968 19.923 53.751 20.1508C53.6051 20.3787 53.498 20.6408 53.4297 20.937C53.3613 21.2286 53.3271 21.5385 53.3271 21.8667ZM61.5713 19.8227V25.6401H59.9238V18.2436H61.4756L61.5713 19.8227ZM61.2773 21.6684L60.7441 21.6616C60.7487 21.1375 60.8216 20.6567 60.9629 20.2192C61.1087 19.7817 61.3092 19.4057 61.5645 19.0913C61.8242 18.7768 62.1341 18.5353 62.4941 18.3667C62.8542 18.1935 63.2552 18.1069 63.6973 18.1069C64.0527 18.1069 64.374 18.157 64.6611 18.2573C64.9528 18.353 65.2012 18.5102 65.4062 18.729C65.6159 18.9477 65.7754 19.2325 65.8848 19.5835C65.9941 19.9298 66.0488 20.3559 66.0488 20.8618V25.6401H64.3945V20.8549C64.3945 20.4995 64.3421 20.2192 64.2373 20.0141C64.137 19.8045 63.9889 19.6564 63.793 19.5698C63.6016 19.4786 63.3623 19.4331 63.0752 19.4331C62.7926 19.4331 62.5397 19.4923 62.3164 19.6108C62.0931 19.7293 61.904 19.8911 61.749 20.0962C61.5986 20.3012 61.4824 20.5382 61.4004 20.8071C61.3184 21.076 61.2773 21.3631 61.2773 21.6684ZM71.1211 18.2436V19.4467H66.9512V18.2436H71.1211ZM68.1543 16.4321H69.8018V23.5962C69.8018 23.824 69.8337 23.9995 69.8975 24.1225C69.9658 24.241 70.0592 24.3208 70.1777 24.3618C70.2962 24.4028 70.4352 24.4233 70.5947 24.4233C70.7087 24.4233 70.818 24.4165 70.9229 24.4028C71.0277 24.3891 71.112 24.3755 71.1758 24.3618L71.1826 25.6196C71.0459 25.6606 70.8864 25.6971 70.7041 25.729C70.5264 25.7609 70.3213 25.7768 70.0889 25.7768C69.7106 25.7768 69.3757 25.7107 69.084 25.5786C68.7923 25.4419 68.5645 25.2208 68.4004 24.9155C68.2363 24.6102 68.1543 24.2046 68.1543 23.6987V16.4321ZM74.1562 18.2436V25.6401H72.502V18.2436H74.1562ZM72.3926 16.3022C72.3926 16.0516 72.4746 15.8442 72.6387 15.6801C72.8073 15.5115 73.0397 15.4272 73.3359 15.4272C73.6276 15.4272 73.8577 15.5115 74.0264 15.6801C74.195 15.8442 74.2793 16.0516 74.2793 16.3022C74.2793 16.5483 74.195 16.7534 74.0264 16.9174C73.8577 17.0815 73.6276 17.1635 73.3359 17.1635C73.0397 17.1635 72.8073 17.0815 72.6387 16.9174C72.4746 16.7534 72.3926 16.5483 72.3926 16.3022ZM77.5947 19.8227V25.6401H75.9473V18.2436H77.499L77.5947 19.8227ZM77.3008 21.6684L76.7676 21.6616C76.7721 21.1375 76.8451 20.6567 76.9863 20.2192C77.1322 19.7817 77.3327 19.4057 77.5879 19.0913C77.8477 18.7768 78.1576 18.5353 78.5176 18.3667C78.8776 18.1935 79.2786 18.1069 79.7207 18.1069C80.0762 18.1069 80.3975 18.157 80.6846 18.2573C80.9762 18.353 81.2246 18.5102 81.4297 18.729C81.6393 18.9477 81.7988 19.2325 81.9082 19.5835C82.0176 19.9298 82.0723 20.3559 82.0723 20.8618V25.6401H80.418V20.8549C80.418 20.4995 80.3656 20.2192 80.2607 20.0141C80.1605 19.8045 80.0124 19.6564 79.8164 19.5698C79.625 19.4786 79.3857 19.4331 79.0986 19.4331C78.8161 19.4331 78.5632 19.4923 78.3398 19.6108C78.1165 19.7293 77.9274 19.8911 77.7725 20.0962C77.6221 20.3012 77.5059 20.5382 77.4238 20.8071C77.3418 21.076 77.3008 21.3631 77.3008 21.6684ZM88.2041 23.8969V18.2436H89.8584V25.6401H88.2998L88.2041 23.8969ZM88.4365 22.3589L88.9902 22.3452C88.9902 22.8419 88.9355 23.2999 88.8262 23.7192C88.7168 24.1339 88.5482 24.4962 88.3203 24.8061C88.0924 25.1115 87.8008 25.3507 87.4453 25.5239C87.0898 25.6925 86.6637 25.7768 86.167 25.7768C85.807 25.7768 85.4766 25.7244 85.1758 25.6196C84.875 25.5148 84.6152 25.353 84.3965 25.1342C84.1823 24.9155 84.016 24.6307 83.8975 24.2797C83.779 23.9288 83.7197 23.5096 83.7197 23.0219V18.2436H85.3672V23.0356C85.3672 23.3045 85.3991 23.5301 85.4629 23.7124C85.5267 23.8901 85.6133 24.0337 85.7227 24.143C85.832 24.2524 85.9596 24.3299 86.1055 24.3755C86.2513 24.421 86.4062 24.4438 86.5703 24.4438C87.0397 24.4438 87.4089 24.3527 87.6777 24.1704C87.9512 23.9835 88.1449 23.7329 88.2588 23.4184C88.3773 23.104 88.4365 22.7508 88.4365 22.3589ZM94.8076 25.7768C94.2607 25.7768 93.7663 25.688 93.3242 25.5102C92.8867 25.3279 92.513 25.075 92.2031 24.7514C91.8978 24.4279 91.6631 24.0473 91.499 23.6098C91.335 23.1723 91.2529 22.7006 91.2529 22.1948V21.9213C91.2529 21.3426 91.3372 20.8185 91.5059 20.3491C91.6745 19.8797 91.9092 19.4786 92.21 19.146C92.5107 18.8087 92.8662 18.5512 93.2764 18.3735C93.6865 18.1958 94.1309 18.1069 94.6094 18.1069C95.138 18.1069 95.6006 18.1958 95.9971 18.3735C96.3936 18.5512 96.7217 18.8019 96.9814 19.1255C97.2458 19.4445 97.4417 19.825 97.5693 20.2671C97.7015 20.7091 97.7676 21.1967 97.7676 21.7299V22.434H92.0527V21.2514H96.1406V21.1215C96.1315 20.8253 96.0723 20.5473 95.9629 20.2876C95.8581 20.0278 95.6963 19.8182 95.4775 19.6587C95.2588 19.4991 94.9671 19.4194 94.6025 19.4194C94.3291 19.4194 94.0853 19.4786 93.8711 19.5971C93.6615 19.7111 93.486 19.8774 93.3447 20.0962C93.2035 20.3149 93.0941 20.5792 93.0166 20.8891C92.9437 21.1945 92.9072 21.5385 92.9072 21.9213V22.1948C92.9072 22.5184 92.9505 22.8191 93.0371 23.0971C93.1283 23.3706 93.2604 23.6098 93.4336 23.8149C93.6068 24.02 93.8164 24.1818 94.0625 24.3003C94.3086 24.4142 94.5889 24.4712 94.9033 24.4712C95.2998 24.4712 95.653 24.3914 95.9629 24.2319C96.2728 24.0724 96.5417 23.8468 96.7695 23.5551L97.6377 24.396C97.4782 24.6284 97.2708 24.8517 97.0156 25.0659C96.7604 25.2755 96.4482 25.4464 96.0791 25.5786C95.7145 25.7107 95.2907 25.7768 94.8076 25.7768ZM104.549 23.9995L106.258 18.2436H107.311L107.023 19.9663L105.301 25.6401H104.357L104.549 23.9995ZM103.544 18.2436L104.877 24.0268L104.986 25.6401H103.934L101.931 18.2436H103.544ZM108.91 23.9585L110.202 18.2436H111.809L109.812 25.6401H108.76L108.91 23.9585ZM107.488 18.2436L109.177 23.9311L109.389 25.6401H108.445L106.702 19.9594L106.415 18.2436H107.488ZM114.693 18.2436V25.6401H113.039V18.2436H114.693ZM112.93 16.3022C112.93 16.0516 113.012 15.8442 113.176 15.6801C113.344 15.5115 113.577 15.4272 113.873 15.4272C114.165 15.4272 114.395 15.5115 114.563 15.6801C114.732 15.8442 114.816 16.0516 114.816 16.3022C114.816 16.5483 114.732 16.7534 114.563 16.9174C114.395 17.0815 114.165 17.1635 113.873 17.1635C113.577 17.1635 113.344 17.0815 113.176 16.9174C113.012 16.7534 112.93 16.5483 112.93 16.3022ZM119.889 18.2436V19.4467H115.719V18.2436H119.889ZM116.922 16.4321H118.569V23.5962C118.569 23.824 118.601 23.9995 118.665 24.1225C118.733 24.241 118.827 24.3208 118.945 24.3618C119.064 24.4028 119.203 24.4233 119.362 24.4233C119.476 24.4233 119.586 24.4165 119.69 24.4028C119.795 24.3891 119.88 24.3755 119.943 24.3618L119.95 25.6196C119.813 25.6606 119.654 25.6971 119.472 25.729C119.294 25.7609 119.089 25.7768 118.856 25.7768C118.478 25.7768 118.143 25.7107 117.852 25.5786C117.56 25.4419 117.332 25.2208 117.168 24.9155C117.004 24.6102 116.922 24.2046 116.922 23.6987V16.4321ZM122.787 15.1401V25.6401H121.146V15.1401H122.787ZM122.5 21.6684L121.967 21.6616C121.971 21.1512 122.042 20.6795 122.179 20.2465C122.32 19.8136 122.516 19.4376 122.767 19.1186C123.022 18.795 123.327 18.5467 123.683 18.3735C124.038 18.1958 124.432 18.1069 124.865 18.1069C125.23 18.1069 125.558 18.157 125.85 18.2573C126.146 18.3575 126.401 18.5193 126.615 18.7426C126.829 18.9614 126.991 19.2485 127.101 19.604C127.215 19.9549 127.271 20.3833 127.271 20.8891V25.6401H125.617V20.8755C125.617 20.52 125.565 20.2374 125.46 20.0278C125.36 19.8182 125.212 19.6678 125.016 19.5766C124.82 19.4809 124.58 19.4331 124.298 19.4331C124.002 19.4331 123.74 19.4923 123.512 19.6108C123.288 19.7293 123.102 19.8911 122.951 20.0962C122.801 20.3012 122.687 20.5382 122.609 20.8071C122.536 21.076 122.5 21.3631 122.5 21.6684ZM140.232 20.5542V24.3549C140.091 24.5418 139.87 24.7469 139.569 24.9702C139.273 25.1889 138.879 25.3781 138.387 25.5376C137.895 25.6971 137.282 25.7768 136.548 25.7768C135.924 25.7768 135.352 25.672 134.832 25.4624C134.312 25.2482 133.864 24.936 133.485 24.5258C133.112 24.1157 132.822 23.6167 132.617 23.0288C132.412 22.4363 132.31 21.7618 132.31 21.0053V20.3149C132.31 19.563 132.403 18.893 132.59 18.3051C132.781 17.7127 133.055 17.2114 133.41 16.8012C133.766 16.3911 134.194 16.0812 134.695 15.8715C135.201 15.6574 135.773 15.5503 136.411 15.5503C137.227 15.5503 137.901 15.687 138.435 15.9604C138.972 16.2293 139.387 16.603 139.679 17.0815C139.97 17.56 140.155 18.1069 140.232 18.7221H138.551C138.496 18.3758 138.389 18.0659 138.229 17.7924C138.075 17.519 137.851 17.3048 137.56 17.1499C137.272 16.9904 136.899 16.9106 136.438 16.9106C136.042 16.9106 135.693 16.9858 135.393 17.1362C135.092 17.2866 134.841 17.5076 134.641 17.7993C134.445 18.0909 134.297 18.4464 134.196 18.8657C134.096 19.285 134.046 19.7635 134.046 20.3012V21.0053C134.046 21.5522 134.103 22.0376 134.217 22.4614C134.335 22.8852 134.504 23.243 134.723 23.5346C134.946 23.8263 135.217 24.0473 135.536 24.1977C135.855 24.3436 136.215 24.4165 136.616 24.4165C137.008 24.4165 137.329 24.3846 137.58 24.3208C137.831 24.2524 138.029 24.1727 138.175 24.0815C138.325 23.9858 138.441 23.8947 138.523 23.8081V21.8325H136.452V20.5542H140.232ZM141.654 22.0239V21.8667C141.654 21.3335 141.732 20.839 141.887 20.3833C142.042 19.923 142.265 19.5242 142.557 19.187C142.853 18.8452 143.213 18.5809 143.637 18.394C144.065 18.2026 144.548 18.1069 145.086 18.1069C145.628 18.1069 146.111 18.2026 146.535 18.394C146.964 18.5809 147.326 18.8452 147.622 19.187C147.918 19.5242 148.144 19.923 148.299 20.3833C148.454 20.839 148.531 21.3335 148.531 21.8667V22.0239C148.531 22.5571 148.454 23.0516 148.299 23.5073C148.144 23.963 147.918 24.3618 147.622 24.7036C147.326 25.0408 146.966 25.3051 146.542 25.4965C146.118 25.6834 145.637 25.7768 145.1 25.7768C144.557 25.7768 144.072 25.6834 143.644 25.4965C143.22 25.3051 142.86 25.0408 142.563 24.7036C142.267 24.3618 142.042 23.963 141.887 23.5073C141.732 23.0516 141.654 22.5571 141.654 22.0239ZM143.302 21.8667V22.0239C143.302 22.3566 143.336 22.671 143.404 22.9672C143.473 23.2635 143.58 23.5232 143.726 23.7465C143.871 23.9699 144.058 24.1453 144.286 24.2729C144.514 24.4005 144.785 24.4643 145.1 24.4643C145.405 24.4643 145.669 24.4005 145.893 24.2729C146.12 24.1453 146.307 23.9699 146.453 23.7465C146.599 23.5232 146.706 23.2635 146.774 22.9672C146.847 22.671 146.884 22.3566 146.884 22.0239V21.8667C146.884 21.5385 146.847 21.2286 146.774 20.937C146.706 20.6408 146.597 20.3787 146.446 20.1508C146.3 19.923 146.114 19.7452 145.886 19.6176C145.662 19.4855 145.396 19.4194 145.086 19.4194C144.776 19.4194 144.507 19.4855 144.279 19.6176C144.056 19.7452 143.871 19.923 143.726 20.1508C143.58 20.3787 143.473 20.6408 143.404 20.937C143.336 21.2286 143.302 21.5385 143.302 21.8667ZM149.598 22.0239V21.8667C149.598 21.3335 149.675 20.839 149.83 20.3833C149.985 19.923 150.208 19.5242 150.5 19.187C150.796 18.8452 151.156 18.5809 151.58 18.394C152.008 18.2026 152.492 18.1069 153.029 18.1069C153.572 18.1069 154.055 18.2026 154.479 18.394C154.907 18.5809 155.269 18.8452 155.565 19.187C155.862 19.5242 156.087 19.923 156.242 20.3833C156.397 20.839 156.475 21.3335 156.475 21.8667V22.0239C156.475 22.5571 156.397 23.0516 156.242 23.5073C156.087 23.963 155.862 24.3618 155.565 24.7036C155.269 25.0408 154.909 25.3051 154.485 25.4965C154.062 25.6834 153.581 25.7768 153.043 25.7768C152.501 25.7768 152.015 25.6834 151.587 25.4965C151.163 25.3051 150.803 25.0408 150.507 24.7036C150.211 24.3618 149.985 23.963 149.83 23.5073C149.675 23.0516 149.598 22.5571 149.598 22.0239ZM151.245 21.8667V22.0239C151.245 22.3566 151.279 22.671 151.348 22.9672C151.416 23.2635 151.523 23.5232 151.669 23.7465C151.815 23.9699 152.002 24.1453 152.229 24.2729C152.457 24.4005 152.729 24.4643 153.043 24.4643C153.348 24.4643 153.613 24.4005 153.836 24.2729C154.064 24.1453 154.251 23.9699 154.396 23.7465C154.542 23.5232 154.649 23.2635 154.718 22.9672C154.791 22.671 154.827 22.3566 154.827 22.0239V21.8667C154.827 21.5385 154.791 21.2286 154.718 20.937C154.649 20.6408 154.54 20.3787 154.39 20.1508C154.244 19.923 154.057 19.7452 153.829 19.6176C153.606 19.4855 153.339 19.4194 153.029 19.4194C152.719 19.4194 152.451 19.4855 152.223 19.6176C151.999 19.7452 151.815 19.923 151.669 20.1508C151.523 20.3787 151.416 20.6408 151.348 20.937C151.279 21.2286 151.245 21.5385 151.245 21.8667ZM162.593 18.2436H164.09V25.435C164.09 26.1004 163.949 26.6655 163.666 27.1303C163.383 27.5952 162.989 27.9484 162.483 28.1899C161.978 28.436 161.392 28.559 160.727 28.559C160.444 28.559 160.13 28.518 159.783 28.436C159.441 28.354 159.109 28.2218 158.785 28.0395C158.466 27.8618 158.2 27.6271 157.985 27.3354L158.758 26.3647C159.022 26.6792 159.314 26.9093 159.633 27.0551C159.952 27.201 160.287 27.2739 160.638 27.2739C161.016 27.2739 161.337 27.2033 161.602 27.062C161.87 26.9253 162.078 26.7225 162.224 26.4536C162.369 26.1847 162.442 25.8566 162.442 25.4692V19.9184L162.593 18.2436ZM157.568 22.0239V21.8803C157.568 21.3198 157.637 20.8094 157.773 20.3491C157.91 19.8842 158.106 19.4855 158.361 19.1528C158.617 18.8156 158.926 18.5581 159.291 18.3803C159.656 18.198 160.068 18.1069 160.528 18.1069C161.007 18.1069 161.415 18.1935 161.752 18.3667C162.094 18.5398 162.379 18.7882 162.606 19.1118C162.834 19.4308 163.012 19.8136 163.14 20.2602C163.272 20.7023 163.37 21.1945 163.434 21.7368V22.1948C163.374 22.7234 163.274 23.2065 163.133 23.644C162.992 24.0815 162.805 24.4598 162.572 24.7788C162.34 25.0978 162.053 25.3439 161.711 25.5171C161.374 25.6902 160.975 25.7768 160.515 25.7768C160.063 25.7768 159.656 25.6834 159.291 25.4965C158.931 25.3097 158.621 25.0477 158.361 24.7104C158.106 24.3732 157.91 23.9767 157.773 23.521C157.637 23.0607 157.568 22.5616 157.568 22.0239ZM159.216 21.8803V22.0239C159.216 22.3611 159.248 22.6756 159.312 22.9672C159.38 23.2589 159.482 23.5164 159.619 23.7397C159.76 23.9585 159.938 24.1316 160.152 24.2592C160.371 24.3823 160.629 24.4438 160.925 24.4438C161.312 24.4438 161.629 24.3618 161.875 24.1977C162.126 24.0337 162.317 23.8126 162.449 23.5346C162.586 23.2521 162.682 22.9376 162.736 22.5913V21.354C162.709 21.0851 162.652 20.8344 162.565 20.602C162.483 20.3696 162.372 20.1668 162.23 19.9936C162.089 19.8159 161.911 19.6792 161.697 19.5835C161.483 19.4832 161.23 19.4331 160.938 19.4331C160.642 19.4331 160.385 19.4969 160.166 19.6245C159.947 19.7521 159.767 19.9275 159.626 20.1508C159.489 20.3741 159.387 20.6339 159.318 20.9301C159.25 21.2264 159.216 21.5431 159.216 21.8803ZM167.562 15.1401V25.6401H165.908V15.1401H167.562ZM172.628 25.7768C172.081 25.7768 171.587 25.688 171.145 25.5102C170.707 25.3279 170.333 25.075 170.023 24.7514C169.718 24.4279 169.483 24.0473 169.319 23.6098C169.155 23.1723 169.073 22.7006 169.073 22.1948V21.9213C169.073 21.3426 169.158 20.8185 169.326 20.3491C169.495 19.8797 169.729 19.4786 170.03 19.146C170.331 18.8087 170.687 18.5512 171.097 18.3735C171.507 18.1958 171.951 18.1069 172.43 18.1069C172.958 18.1069 173.421 18.1958 173.817 18.3735C174.214 18.5512 174.542 18.8019 174.802 19.1255C175.066 19.4445 175.262 19.825 175.39 20.2671C175.522 20.7091 175.588 21.1967 175.588 21.7299V22.434H169.873V21.2514H173.961V21.1215C173.952 20.8253 173.893 20.5473 173.783 20.2876C173.678 20.0278 173.517 19.8182 173.298 19.6587C173.079 19.4991 172.787 19.4194 172.423 19.4194C172.149 19.4194 171.906 19.4786 171.691 19.5971C171.482 19.7111 171.306 19.8774 171.165 20.0962C171.024 20.3149 170.914 20.5792 170.837 20.8891C170.764 21.1945 170.728 21.5385 170.728 21.9213V22.1948C170.728 22.5184 170.771 22.8191 170.857 23.0971C170.949 23.3706 171.081 23.6098 171.254 23.8149C171.427 24.02 171.637 24.1818 171.883 24.3003C172.129 24.4142 172.409 24.4712 172.724 24.4712C173.12 24.4712 173.473 24.3914 173.783 24.2319C174.093 24.0724 174.362 23.8468 174.59 23.5551L175.458 24.396C175.299 24.6284 175.091 24.8517 174.836 25.0659C174.581 25.2755 174.269 25.4464 173.899 25.5786C173.535 25.7107 173.111 25.7768 172.628 25.7768Z" fill="#1F1F1F"/>
<path d="M169 1.14014H20C9.23045 1.14014 0.5 9.87058 0.5 20.6401C0.5 31.4097 9.23045 40.1401 20 40.1401H169C179.77 40.1401 188.5 31.4097 188.5 20.6401C188.5 9.87058 179.77 1.14014 169 1.14014Z" stroke="#747775"/>
</g>
<defs>
<clipPath id="clip0_272_259">
<rect width="189" height="40" fill="white" transform="translate(0 0.640137)"/>
</clipPath>
</defs>
</svg>
