<svg width="20" height="21" viewBox="0 0 20 21" fill="none" xmlns="http://www.w3.org/2000/svg">
<mask id="mask0_327_224" style="mask-type:luminance" maskUnits="userSpaceOnUse" x="0" y="0" width="20" height="21">
<path d="M20 0.640137H0V20.6401H20V0.640137Z" fill="white"/>
</mask>
<g mask="url(#mask0_327_224)">
<path d="M19.6 10.8673C19.6 10.1582 19.5364 9.47638 19.4182 8.82178H10V12.69H15.3818C15.15 13.94 14.4455 14.9991 13.3864 15.7082V18.2173H16.6182C18.5091 16.4764 19.6 13.9127 19.6 10.8673Z" fill="#4285F4"/>
<path d="M10.0001 20.64C12.7001 20.64 14.9637 19.7445 16.6182 18.2173L13.3864 15.7082C12.491 16.3082 11.3455 16.6627 10.0001 16.6627C7.39552 16.6627 5.19102 14.9036 4.40462 12.54H1.06372V15.1309C2.70922 18.3991 6.09102 20.64 10.0001 20.64Z" fill="#34A853"/>
<path d="M4.4045 12.5403C4.2045 11.9403 4.0909 11.2994 4.0909 10.6403C4.0909 9.98121 4.2045 9.34031 4.4045 8.74031V6.14941H1.0636C0.3864 7.49941 0 9.02671 0 10.6403C0 12.2539 0.3864 13.7812 1.0636 15.1312L4.4045 12.5403Z" fill="#FBBC04"/>
<path d="M10.0001 4.61744C11.4682 4.61744 12.7864 5.12194 13.8228 6.11284L16.691 3.24464C14.9592 1.63104 12.6955 0.640137 10.0001 0.640137C6.09102 0.640137 2.70922 2.88104 1.06372 6.14924L4.40462 8.74014C5.19102 6.37654 7.39552 4.61744 10.0001 4.61744Z" fill="#E94235"/>
</g>
</svg>
