<svg xmlns="http://www.w3.org/2000/svg" fill="none" viewBox="0 0 20 20"><g clip-path="url(#a)"><path fill="#24292F" fill-rule="evenodd" d="M9.97.14C4.457.14 0 4.494 0 9.881c0 4.306 2.856 7.95 6.817 9.24.496.098.677-.209.677-.467 0-.226-.016-1-.016-1.806-2.774.58-3.351-1.161-3.351-1.161-.446-1.13-1.106-1.42-1.106-1.42-.908-.596.066-.596.066-.596 1.007.064 1.535 1 1.535 1 .891 1.483 2.327 1.064 2.905.806.083-.629.347-1.064.627-1.306-2.212-.226-4.539-1.065-4.539-4.806a3.75 3.75 0 0 1 1.023-2.613c-.099-.242-.445-1.242.1-2.58 0 0 .841-.258 2.74 1a9.9 9.9 0 0 1 2.492-.323c.842 0 1.7.113 2.493.323 1.898-1.258 2.74-1 2.74-1 .545 1.338.198 2.338.099 2.58.644.678 1.023 1.548 1.023 2.613 0 3.741-2.327 4.564-4.556 4.806.364.306.677.887.677 1.806 0 1.306-.016 2.355-.016 2.677 0 .258.181.565.677.468 3.961-1.29 6.817-4.935 6.817-9.241.016-5.387-4.457-9.74-9.954-9.74" clip-rule="evenodd"/></g><defs><clipPath id="a"><path fill="#fff" d="M0 .14h20v19H0z"/></clipPath></defs></svg>