<svg width="20" height="20" viewBox="0 0 20 20" fill="none" xmlns="http://www.w3.org/2000/svg">
<g clip-path="url(#clip0_327_235)">
<path fill-rule="evenodd" clip-rule="evenodd" d="M9.9702 0.140137C4.45694 0.140137 0 4.4943 0 9.881C0 14.1869 2.85571 17.8317 6.81735 19.1217C7.31265 19.2187 7.49408 18.9121 7.49408 18.6542C7.49408 18.4284 7.47776 17.6544 7.47776 16.8479C4.70429 17.4286 4.12674 15.6867 4.12674 15.6867C3.68102 14.5578 3.02061 14.2676 3.02061 14.2676C2.11286 13.6709 3.08673 13.6709 3.08673 13.6709C4.09367 13.7354 4.62204 14.6708 4.62204 14.6708C5.51327 16.1544 6.94939 15.7352 7.52714 15.4771C7.60959 14.8481 7.87388 14.4127 8.15449 14.1708C5.94245 13.945 3.6151 13.1064 3.6151 9.36483C3.6151 8.30044 4.01102 7.42961 4.63837 6.75233C4.53939 6.51048 4.19265 5.51041 4.73755 4.1719C4.73755 4.1719 5.57939 3.91381 7.47755 5.17177C8.29022 4.95855 9.12832 4.85008 9.9702 4.84917C10.812 4.84917 11.6702 4.96218 12.4627 5.17177C14.361 3.91381 15.2029 4.1719 15.2029 4.1719C15.7478 5.51041 15.4008 6.51048 15.3018 6.75233C15.9457 7.42961 16.3253 8.30044 16.3253 9.36483C16.3253 13.1064 13.998 13.9288 11.7694 14.1708C12.1327 14.4772 12.4461 15.0577 12.4461 15.977C12.4461 17.2833 12.4298 18.3316 12.4298 18.6541C12.4298 18.9121 12.6114 19.2187 13.1065 19.1219C17.0682 17.8315 19.9239 14.1869 19.9239 9.881C19.9402 4.4943 15.4669 0.140137 9.9702 0.140137Z" fill="#24292F"/>
</g>
<defs>
<clipPath id="clip0_327_235">
<rect width="20" height="19" fill="white" transform="translate(0 0.140137)"/>
</clipPath>
</defs>
</svg>
