<svg xmlns="http://www.w3.org/2000/svg" fill="none" viewBox="0 0 189 41"><rect width="188" height="39" x=".5" y="1.14" fill="#fff" rx="19.5"/><rect width="188" height="39" x=".5" y="1.14" stroke="#747775" rx="19.5"/><g clip-path="url(#a)"><path fill="#24292F" fill-rule="evenodd" d="M23.97 11.14c-5.513 0-9.97 4.354-9.97 9.741 0 4.306 2.856 7.95 6.817 9.24.496.098.677-.209.677-.467 0-.226-.016-1-.016-1.806-2.774.58-3.351-1.161-3.351-1.161-.446-1.13-1.106-1.42-1.106-1.42-.908-.596.066-.596.066-.596 1.007.064 1.535 1 1.535 1 .891 1.483 2.327 1.064 2.905.806.083-.629.347-1.064.627-1.306-2.212-.226-4.539-1.065-4.539-4.806a3.75 3.75 0 0 1 1.023-2.613c-.099-.241-.445-1.242.1-2.58 0 0 .841-.258 2.74 1a10 10 0 0 1 2.492-.323c.842 0 1.7.113 2.493.323 1.898-1.258 2.74-1 2.74-1 .545 1.338.198 2.339.099 2.58.644.678 1.023 1.548 1.023 2.613 0 3.741-2.327 4.564-4.556 4.806.364.306.677.887.677 1.806 0 1.306-.016 2.355-.016 2.677 0 .258.181.565.677.468 3.961-1.29 6.817-4.935 6.817-9.241.016-5.387-4.457-9.74-9.954-9.74" clip-rule="evenodd"/></g><path fill="#1F1F1F" d="M48.89 22.4h1.71a3.95 3.95 0 0 1-.547 1.743q-.465.76-1.306 1.196-.84.438-2.044.438-.923 0-1.661-.328a3.6 3.6 0 0 1-1.265-.944 4.3 4.3 0 0 1-.806-1.483 6.5 6.5 0 0 1-.274-1.941v-.828q0-1.073.28-1.941a4.3 4.3 0 0 1 .82-1.483 3.55 3.55 0 0 1 1.28-.95 4.2 4.2 0 0 1 1.688-.329q1.189 0 2.01.438.82.437 1.27 1.21.459.773.561 1.77h-1.709a3.2 3.2 0 0 0-.3-1.1 1.55 1.55 0 0 0-.67-.698q-.445-.246-1.162-.246-.588 0-1.026.22-.437.218-.731.642a3.1 3.1 0 0 0-.445 1.045q-.143.615-.143 1.409v.84q0 .753.13 1.368.137.608.41 1.046.28.437.71.676.432.24 1.033.24.732 0 1.183-.233a1.55 1.55 0 0 0 .69-.677q.24-.45.315-1.1m2.79-.376v-.157q0-.8.232-1.484.232-.69.67-1.196a3 3 0 0 1 1.08-.793 3.5 3.5 0 0 1 1.45-.287q.813 0 1.448.287.643.28 1.087.793.445.506.677 1.196.233.684.233 1.484v.157q0 .8-.233 1.483-.232.684-.676 1.197a3.1 3.1 0 0 1-1.08.793q-.636.28-1.443.28a3.6 3.6 0 0 1-1.456-.28 3.1 3.1 0 0 1-1.08-.793 3.6 3.6 0 0 1-.677-1.197 4.6 4.6 0 0 1-.232-1.483m1.647-.157v.157q0 .5.103.943.102.445.321.78.22.334.56.526.343.191.814.191.458 0 .793-.191.342-.192.56-.526a2.4 2.4 0 0 0 .322-.78q.11-.444.11-.943v-.157q0-.492-.11-.93a2.4 2.4 0 0 0-.328-.786 1.6 1.6 0 0 0-.56-.533 1.54 1.54 0 0 0-.8-.199q-.466 0-.807.199a1.6 1.6 0 0 0-.554.533q-.219.342-.321.786a4 4 0 0 0-.103.93m8.244-2.044v5.817h-1.647v-7.396h1.552zm-.294 1.846-.533-.007a4.8 4.8 0 0 1 .219-1.443 3.6 3.6 0 0 1 .602-1.128q.39-.472.93-.724a2.74 2.74 0 0 1 1.202-.26q.534 0 .964.15.438.144.745.472.315.328.479.855.165.519.164 1.278v4.778h-1.655v-4.785q0-.533-.157-.84a.88.88 0 0 0-.444-.445q-.286-.137-.718-.137-.423 0-.759.178-.335.177-.567.485a2.4 2.4 0 0 0-.349.711 3 3 0 0 0-.123.862m9.844-3.425v1.203h-4.17v-1.203zm-2.967-1.812h1.648v7.164q0 .342.095.527a.5.5 0 0 0 .28.239q.179.06.418.061.17 0 .328-.02a3 3 0 0 0 .253-.041l.007 1.258a4 4 0 0 1-.479.109 3.5 3.5 0 0 1-.615.048 2.4 2.4 0 0 1-1.005-.198 1.48 1.48 0 0 1-.684-.663q-.246-.458-.246-1.217zm6.002 1.812v7.396h-1.654v-7.396zm-1.763-1.942q0-.376.246-.622.252-.252.697-.253.438 0 .69.253a.83.83 0 0 1 .253.622.82.82 0 0 1-.253.616q-.252.245-.69.246-.444 0-.697-.247a.84.84 0 0 1-.246-.615m5.202 3.52v5.818h-1.648v-7.396H77.5zM77.3 21.67l-.533-.007a4.8 4.8 0 0 1 .218-1.443q.22-.655.602-1.128.39-.472.93-.724.54-.26 1.203-.26.532 0 .964.15.437.144.745.472.315.328.478.855.165.519.164 1.278v4.778h-1.654v-4.785q0-.533-.157-.84a.88.88 0 0 0-.445-.445q-.287-.137-.717-.137-.424 0-.76.178-.334.177-.567.485-.225.308-.348.711a3 3 0 0 0-.123.862m10.903 2.228v-5.653h1.654v7.396H88.3zm.233-1.538.553-.014q0 .745-.164 1.374-.165.622-.506 1.087-.342.458-.875.718-.533.253-1.278.253-.54 0-.991-.157t-.78-.486a2.2 2.2 0 0 1-.499-.854q-.177-.526-.177-1.258v-4.778h1.647v4.792q0 .402.096.676.096.267.26.431.164.165.383.232.218.069.464.069.705 0 1.108-.274.41-.28.58-.751.179-.472.178-1.06m6.37 3.418a4 4 0 0 1-1.483-.267 3.3 3.3 0 0 1-1.12-.759 3.4 3.4 0 0 1-.705-1.141 4 4 0 0 1-.246-1.415v-.274q0-.867.253-1.572.252-.704.704-1.203.45-.506 1.066-.773.615-.266 1.333-.266.794 0 1.388.267.596.266.984.752.397.478.588 1.141.198.663.199 1.463v.704h-5.715v-1.183h4.088v-.13a2.3 2.3 0 0 0-.178-.833 1.4 1.4 0 0 0-.485-.63q-.329-.239-.875-.239-.411 0-.732.178-.315.17-.526.5a2.6 2.6 0 0 0-.328.792q-.11.459-.11 1.032v.274q0 .485.13.902.136.41.397.718.259.308.629.485.369.171.84.171.595 0 1.06-.24.465-.238.806-.676l.869.841q-.24.348-.622.67-.384.314-.937.513a3.7 3.7 0 0 1-1.271.198M104.55 24l1.709-5.756h1.053l-.288 1.722-1.722 5.674h-.944zm-1.005-5.756 1.333 5.783.109 1.613h-1.052l-2.003-7.396zm5.366 5.715 1.292-5.715h1.607l-1.997 7.396h-1.052zm-1.422-5.715 1.689 5.687.212 1.71h-.944l-1.743-5.681-.287-1.716zm7.205 0v7.396h-1.654v-7.396zm-1.763-1.942q0-.376.246-.622.253-.252.697-.253.438 0 .69.253a.83.83 0 0 1 .253.622.82.82 0 0 1-.253.616q-.252.245-.69.246-.444 0-.697-.247a.84.84 0 0 1-.246-.615m6.959 1.942v1.203h-4.17v-1.203zm-2.967-1.812h1.647v7.164q0 .342.096.527a.5.5 0 0 0 .28.239q.179.06.417.061.172 0 .328-.02.158-.02.253-.041l.007 1.258a4 4 0 0 1-.478.109 3.5 3.5 0 0 1-.616.048q-.567 0-1.004-.198a1.48 1.48 0 0 1-.684-.663q-.246-.458-.246-1.217zm5.865-1.292v10.5h-1.641v-10.5zm-.287 6.529-.533-.007q.006-.765.212-1.415.212-.65.588-1.128a2.61 2.61 0 0 1 2.098-1.012q.547 0 .985.15.444.15.765.486.321.328.486.861.17.526.17 1.285v4.751h-1.654v-4.765q0-.532-.157-.847a.9.9 0 0 0-.444-.451 1.6 1.6 0 0 0-.718-.144q-.444 0-.786.178-.335.177-.561.485-.225.308-.342.711a3.3 3.3 0 0 0-.109.862m17.732-1.115v3.801q-.211.28-.663.615-.444.328-1.182.568t-1.839.239a4.6 4.6 0 0 1-1.716-.315 3.8 3.8 0 0 1-1.347-.936 4.3 4.3 0 0 1-.868-1.497q-.307-.889-.307-2.024v-.69q0-1.128.28-2.01a4.3 4.3 0 0 1 .82-1.504q.534-.615 1.285-.93.759-.32 1.716-.32 1.224 0 2.024.41.806.402 1.244 1.12.437.72.553 1.641h-1.681a2.6 2.6 0 0 0-.322-.93 1.6 1.6 0 0 0-.669-.642q-.431-.24-1.122-.24-.595 0-1.045.226-.452.226-.752.663a3.3 3.3 0 0 0-.445 1.067q-.15.629-.15 1.435v.704q0 .821.171 1.456.177.636.506 1.074.335.437.813.663a2.6 2.6 0 0 0 1.08.218q.588 0 .964-.095a2.3 2.3 0 0 0 .595-.24q.225-.142.348-.273v-1.976h-2.071v-1.278zm3.5-2.31v7.396h-1.654v-7.396zm-1.763-1.942q0-.376.246-.622.252-.252.697-.253.438 0 .691.253a.83.83 0 0 1 .252.622.83.83 0 0 1-.252.616q-.253.245-.691.246-.445 0-.697-.247a.84.84 0 0 1-.246-.615m6.959 1.942v1.203h-4.17v-1.203zm-2.967-1.812h1.647v7.164q0 .342.096.527a.5.5 0 0 0 .28.239q.179.06.417.061.171 0 .328-.02.158-.02.253-.041l.007 1.258a4 4 0 0 1-.478.109 3.5 3.5 0 0 1-.615.048q-.569 0-1.005-.198a1.48 1.48 0 0 1-.684-.663q-.246-.458-.246-1.217zm10.978 3.411v1.36h-5.284v-1.36zm-4.86-4.156v9.953h-1.716v-9.953zm6.18 0v9.953h-1.709v-9.953zm6.33 8.21v-5.653h1.654v7.396h-1.558zm.232-1.538.554-.014q0 .745-.164 1.374a3.2 3.2 0 0 1-.506 1.087 2.36 2.36 0 0 1-.875.718q-.532.253-1.278.253a3 3 0 0 1-.991-.157 2 2 0 0 1-.78-.486 2.2 2.2 0 0 1-.499-.854q-.178-.526-.178-1.258v-4.778h1.648v4.792q0 .402.096.676.095.267.259.431.165.165.383.232.219.069.465.069.704 0 1.107-.274.411-.28.582-.751.177-.472.177-1.06m3.117-7.219h1.648v8.921l-.157 1.58h-1.491zm6.474 6.733v.144q0 .82-.184 1.51a3.5 3.5 0 0 1-.547 1.19q-.363.507-.903.786-.533.274-1.237.274-.69 0-1.203-.26a2.4 2.4 0 0 1-.861-.738 4.1 4.1 0 0 1-.554-1.142 7.5 7.5 0 0 1-.301-1.463v-.458q.089-.806.301-1.463.212-.663.554-1.141.348-.486.854-.745.513-.26 1.196-.26.711 0 1.251.273.547.274.91.78.362.498.54 1.19a6 6 0 0 1 .184 1.523m-1.647.144v-.143q0-.5-.082-.937a2.5 2.5 0 0 0-.274-.78 1.37 1.37 0 0 0-.506-.526q-.314-.198-.786-.198-.437 0-.752.15-.314.151-.526.41a2 2 0 0 0-.335.602q-.117.342-.157.739v1.237q.061.513.259.943.206.424.575.684.369.252.95.253.458 0 .772-.185.315-.184.499-.513.192-.335.274-.779.089-.444.089-.957"/><defs><clipPath id="a"><path fill="#fff" d="M14 11.14h20v19H14z"/></clipPath></defs></svg>