<svg width="189" height="41" viewBox="0 0 189 41" fill="none" xmlns="http://www.w3.org/2000/svg">
<rect x="0.5" y="1.14014" width="188" height="39" rx="19.5" fill="white"/>
<rect x="0.5" y="1.14014" width="188" height="39" rx="19.5" stroke="#747775"/>
<g clip-path="url(#clip0_272_236)">
<path fill-rule="evenodd" clip-rule="evenodd" d="M23.9702 11.1401C18.4569 11.1401 14 15.4943 14 20.881C14 25.1869 16.8557 28.8317 20.8173 30.1217C21.3127 30.2187 21.4941 29.9121 21.4941 29.6543C21.4941 29.4284 21.4778 28.6544 21.4778 27.8479C18.7043 28.4286 18.1267 26.6867 18.1267 26.6867C17.681 25.5578 17.0206 25.2676 17.0206 25.2676C16.1129 24.6709 17.0867 24.6709 17.0867 24.6709C18.0937 24.7354 18.622 25.6708 18.622 25.6708C19.5133 27.1544 20.9494 26.7352 21.5271 26.4771C21.6096 25.8481 21.8739 25.4127 22.1545 25.1708C19.9424 24.945 17.6151 24.1064 17.6151 20.3648C17.6151 19.3004 18.011 18.4296 18.6384 17.7523C18.5394 17.5105 18.1927 16.5104 18.7376 15.1719C18.7376 15.1719 19.5794 14.9138 21.4776 16.1718C22.2902 15.9585 23.1283 15.8501 23.9702 15.8492C24.812 15.8492 25.6702 15.9622 26.4627 16.1718C28.361 14.9138 29.2029 15.1719 29.2029 15.1719C29.7478 16.5104 29.4008 17.5105 29.3018 17.7523C29.9457 18.4296 30.3253 19.3004 30.3253 20.3648C30.3253 24.1064 27.998 24.9288 25.7694 25.1708C26.1327 25.4772 26.4461 26.0577 26.4461 26.977C26.4461 28.2833 26.4298 29.3316 26.4298 29.6541C26.4298 29.9121 26.6114 30.2187 27.1065 30.1219C31.0682 28.8315 33.9239 25.1869 33.9239 20.881C33.9402 15.4943 29.4669 11.1401 23.9702 11.1401Z" fill="#24292F"/>
</g>
<path d="M48.8906 22.3999H50.5996C50.5449 23.0516 50.3626 23.6326 50.0527 24.1431C49.7428 24.6489 49.3076 25.0477 48.7471 25.3394C48.1865 25.631 47.5052 25.7769 46.7031 25.7769C46.0879 25.7769 45.5342 25.6675 45.042 25.4487C44.5498 25.2254 44.1283 24.911 43.7773 24.5054C43.4264 24.0952 43.1576 23.6007 42.9707 23.022C42.7884 22.4432 42.6973 21.7961 42.6973 21.0806V20.2534C42.6973 19.5379 42.7907 18.8908 42.9775 18.312C43.1689 17.7332 43.4424 17.2388 43.7979 16.8286C44.1533 16.4139 44.5794 16.0972 45.0762 15.8784C45.5775 15.6597 46.1403 15.5503 46.7646 15.5503C47.5576 15.5503 48.2275 15.6961 48.7744 15.9878C49.3213 16.2795 49.7451 16.6828 50.0459 17.1978C50.3512 17.7127 50.5381 18.3029 50.6064 18.9683H48.8975C48.8519 18.5399 48.7516 18.173 48.5967 17.8677C48.4463 17.5623 48.223 17.3299 47.9268 17.1704C47.6305 17.0063 47.2432 16.9243 46.7646 16.9243C46.3727 16.9243 46.0309 16.9972 45.7393 17.1431C45.4476 17.2889 45.2038 17.5031 45.0078 17.7856C44.8118 18.0682 44.6637 18.4168 44.5635 18.8315C44.4678 19.2417 44.4199 19.7111 44.4199 20.2397V21.0806C44.4199 21.5819 44.4632 22.0376 44.5498 22.4478C44.641 22.8534 44.7777 23.202 44.96 23.4937C45.1468 23.7853 45.3838 24.0109 45.6709 24.1704C45.958 24.3299 46.3021 24.4097 46.7031 24.4097C47.1908 24.4097 47.585 24.3322 47.8857 24.1772C48.1911 24.0223 48.4212 23.7967 48.5762 23.5005C48.7357 23.1997 48.8405 22.8328 48.8906 22.3999ZM51.6797 22.0239V21.8667C51.6797 21.3335 51.7572 20.839 51.9121 20.3833C52.0671 19.923 52.2904 19.5243 52.582 19.187C52.8783 18.8452 53.2383 18.5809 53.6621 18.394C54.0905 18.2026 54.5736 18.1069 55.1113 18.1069C55.6536 18.1069 56.1367 18.2026 56.5605 18.394C56.9889 18.5809 57.3512 18.8452 57.6475 19.187C57.9437 19.5243 58.1693 19.923 58.3242 20.3833C58.4792 20.839 58.5566 21.3335 58.5566 21.8667V22.0239C58.5566 22.5571 58.4792 23.0516 58.3242 23.5073C58.1693 23.9631 57.9437 24.3618 57.6475 24.7036C57.3512 25.0409 56.9912 25.3052 56.5674 25.4966C56.1436 25.6834 55.6628 25.7769 55.125 25.7769C54.5827 25.7769 54.0973 25.6834 53.6689 25.4966C53.2451 25.3052 52.8851 25.0409 52.5889 24.7036C52.2926 24.3618 52.0671 23.9631 51.9121 23.5073C51.7572 23.0516 51.6797 22.5571 51.6797 22.0239ZM53.3271 21.8667V22.0239C53.3271 22.3566 53.3613 22.6711 53.4297 22.9673C53.498 23.2635 53.6051 23.5233 53.751 23.7466C53.8968 23.9699 54.0837 24.1453 54.3115 24.2729C54.5394 24.4006 54.8105 24.4644 55.125 24.4644C55.4303 24.4644 55.6947 24.4006 55.918 24.2729C56.1458 24.1453 56.3327 23.9699 56.4785 23.7466C56.6243 23.5233 56.7314 23.2635 56.7998 22.9673C56.8727 22.6711 56.9092 22.3566 56.9092 22.0239V21.8667C56.9092 21.5386 56.8727 21.2287 56.7998 20.937C56.7314 20.6408 56.6221 20.3787 56.4717 20.1509C56.3258 19.923 56.139 19.7453 55.9111 19.6177C55.6878 19.4855 55.4212 19.4194 55.1113 19.4194C54.8014 19.4194 54.5326 19.4855 54.3047 19.6177C54.0814 19.7453 53.8968 19.923 53.751 20.1509C53.6051 20.3787 53.498 20.6408 53.4297 20.937C53.3613 21.2287 53.3271 21.5386 53.3271 21.8667ZM61.5713 19.8228V25.6401H59.9238V18.2437H61.4756L61.5713 19.8228ZM61.2773 21.6685L60.7441 21.6616C60.7487 21.1375 60.8216 20.6567 60.9629 20.2192C61.1087 19.7817 61.3092 19.4058 61.5645 19.0913C61.8242 18.7769 62.1341 18.5353 62.4941 18.3667C62.8542 18.1935 63.2552 18.1069 63.6973 18.1069C64.0527 18.1069 64.374 18.1571 64.6611 18.2573C64.9528 18.353 65.2012 18.5103 65.4062 18.729C65.6159 18.9478 65.7754 19.2326 65.8848 19.5835C65.9941 19.9299 66.0488 20.356 66.0488 20.8618V25.6401H64.3945V20.855C64.3945 20.4995 64.3421 20.2192 64.2373 20.0142C64.137 19.8045 63.9889 19.6564 63.793 19.5698C63.6016 19.4787 63.3623 19.4331 63.0752 19.4331C62.7926 19.4331 62.5397 19.4924 62.3164 19.6108C62.0931 19.7293 61.904 19.8911 61.749 20.0962C61.5986 20.3013 61.4824 20.5382 61.4004 20.8071C61.3184 21.076 61.2773 21.3631 61.2773 21.6685ZM71.1211 18.2437V19.4468H66.9512V18.2437H71.1211ZM68.1543 16.4321H69.8018V23.5962C69.8018 23.8241 69.8337 23.9995 69.8975 24.1226C69.9658 24.241 70.0592 24.3208 70.1777 24.3618C70.2962 24.4028 70.4352 24.4233 70.5947 24.4233C70.7087 24.4233 70.818 24.4165 70.9229 24.4028C71.0277 24.3892 71.112 24.3755 71.1758 24.3618L71.1826 25.6196C71.0459 25.6606 70.8864 25.6971 70.7041 25.729C70.5264 25.7609 70.3213 25.7769 70.0889 25.7769C69.7106 25.7769 69.3757 25.7108 69.084 25.5786C68.7923 25.4419 68.5645 25.2209 68.4004 24.9155C68.2363 24.6102 68.1543 24.2046 68.1543 23.6987V16.4321ZM74.1562 18.2437V25.6401H72.502V18.2437H74.1562ZM72.3926 16.3022C72.3926 16.0516 72.4746 15.8442 72.6387 15.6802C72.8073 15.5116 73.0397 15.4272 73.3359 15.4272C73.6276 15.4272 73.8577 15.5116 74.0264 15.6802C74.195 15.8442 74.2793 16.0516 74.2793 16.3022C74.2793 16.5483 74.195 16.7534 74.0264 16.9175C73.8577 17.0815 73.6276 17.1636 73.3359 17.1636C73.0397 17.1636 72.8073 17.0815 72.6387 16.9175C72.4746 16.7534 72.3926 16.5483 72.3926 16.3022ZM77.5947 19.8228V25.6401H75.9473V18.2437H77.499L77.5947 19.8228ZM77.3008 21.6685L76.7676 21.6616C76.7721 21.1375 76.8451 20.6567 76.9863 20.2192C77.1322 19.7817 77.3327 19.4058 77.5879 19.0913C77.8477 18.7769 78.1576 18.5353 78.5176 18.3667C78.8776 18.1935 79.2786 18.1069 79.7207 18.1069C80.0762 18.1069 80.3975 18.1571 80.6846 18.2573C80.9762 18.353 81.2246 18.5103 81.4297 18.729C81.6393 18.9478 81.7988 19.2326 81.9082 19.5835C82.0176 19.9299 82.0723 20.356 82.0723 20.8618V25.6401H80.418V20.855C80.418 20.4995 80.3656 20.2192 80.2607 20.0142C80.1605 19.8045 80.0124 19.6564 79.8164 19.5698C79.625 19.4787 79.3857 19.4331 79.0986 19.4331C78.8161 19.4331 78.5632 19.4924 78.3398 19.6108C78.1165 19.7293 77.9274 19.8911 77.7725 20.0962C77.6221 20.3013 77.5059 20.5382 77.4238 20.8071C77.3418 21.076 77.3008 21.3631 77.3008 21.6685ZM88.2041 23.897V18.2437H89.8584V25.6401H88.2998L88.2041 23.897ZM88.4365 22.3589L88.9902 22.3452C88.9902 22.842 88.9355 23.3 88.8262 23.7192C88.7168 24.134 88.5482 24.4963 88.3203 24.8062C88.0924 25.1115 87.8008 25.3507 87.4453 25.5239C87.0898 25.6925 86.6637 25.7769 86.167 25.7769C85.807 25.7769 85.4766 25.7244 85.1758 25.6196C84.875 25.5148 84.6152 25.353 84.3965 25.1343C84.1823 24.9155 84.016 24.6307 83.8975 24.2798C83.779 23.9289 83.7197 23.5096 83.7197 23.022V18.2437H85.3672V23.0356C85.3672 23.3045 85.3991 23.5301 85.4629 23.7124C85.5267 23.8901 85.6133 24.0337 85.7227 24.1431C85.832 24.2524 85.9596 24.3299 86.1055 24.3755C86.2513 24.4211 86.4062 24.4438 86.5703 24.4438C87.0397 24.4438 87.4089 24.3527 87.6777 24.1704C87.9512 23.9836 88.1449 23.7329 88.2588 23.4185C88.3773 23.104 88.4365 22.7508 88.4365 22.3589ZM94.8076 25.7769C94.2607 25.7769 93.7663 25.688 93.3242 25.5103C92.8867 25.328 92.513 25.075 92.2031 24.7515C91.8978 24.4279 91.6631 24.0474 91.499 23.6099C91.335 23.1724 91.2529 22.7007 91.2529 22.1948V21.9214C91.2529 21.3426 91.3372 20.8185 91.5059 20.3491C91.6745 19.8797 91.9092 19.4787 92.21 19.146C92.5107 18.8088 92.8662 18.5513 93.2764 18.3735C93.6865 18.1958 94.1309 18.1069 94.6094 18.1069C95.138 18.1069 95.6006 18.1958 95.9971 18.3735C96.3936 18.5513 96.7217 18.8019 96.9814 19.1255C97.2458 19.4445 97.4417 19.825 97.5693 20.2671C97.7015 20.7091 97.7676 21.1968 97.7676 21.73V22.4341H92.0527V21.2515H96.1406V21.1216C96.1315 20.8254 96.0723 20.5474 95.9629 20.2876C95.8581 20.0278 95.6963 19.8182 95.4775 19.6587C95.2588 19.4992 94.9671 19.4194 94.6025 19.4194C94.3291 19.4194 94.0853 19.4787 93.8711 19.5972C93.6615 19.7111 93.486 19.8774 93.3447 20.0962C93.2035 20.3149 93.0941 20.5793 93.0166 20.8892C92.9437 21.1945 92.9072 21.5386 92.9072 21.9214V22.1948C92.9072 22.5184 92.9505 22.8192 93.0371 23.0972C93.1283 23.3706 93.2604 23.6099 93.4336 23.8149C93.6068 24.02 93.8164 24.1818 94.0625 24.3003C94.3086 24.4142 94.5889 24.4712 94.9033 24.4712C95.2998 24.4712 95.653 24.3914 95.9629 24.2319C96.2728 24.0724 96.5417 23.8468 96.7695 23.5552L97.6377 24.396C97.4782 24.6284 97.2708 24.8517 97.0156 25.0659C96.7604 25.2756 96.4482 25.4465 96.0791 25.5786C95.7145 25.7108 95.2907 25.7769 94.8076 25.7769ZM104.549 23.9995L106.258 18.2437H107.311L107.023 19.9663L105.301 25.6401H104.357L104.549 23.9995ZM103.544 18.2437L104.877 24.0269L104.986 25.6401H103.934L101.931 18.2437H103.544ZM108.91 23.9585L110.202 18.2437H111.809L109.812 25.6401H108.76L108.91 23.9585ZM107.488 18.2437L109.177 23.9312L109.389 25.6401H108.445L106.702 19.9595L106.415 18.2437H107.488ZM114.693 18.2437V25.6401H113.039V18.2437H114.693ZM112.93 16.3022C112.93 16.0516 113.012 15.8442 113.176 15.6802C113.344 15.5116 113.577 15.4272 113.873 15.4272C114.165 15.4272 114.395 15.5116 114.563 15.6802C114.732 15.8442 114.816 16.0516 114.816 16.3022C114.816 16.5483 114.732 16.7534 114.563 16.9175C114.395 17.0815 114.165 17.1636 113.873 17.1636C113.577 17.1636 113.344 17.0815 113.176 16.9175C113.012 16.7534 112.93 16.5483 112.93 16.3022ZM119.889 18.2437V19.4468H115.719V18.2437H119.889ZM116.922 16.4321H118.569V23.5962C118.569 23.8241 118.601 23.9995 118.665 24.1226C118.733 24.241 118.827 24.3208 118.945 24.3618C119.064 24.4028 119.203 24.4233 119.362 24.4233C119.476 24.4233 119.586 24.4165 119.69 24.4028C119.795 24.3892 119.88 24.3755 119.943 24.3618L119.95 25.6196C119.813 25.6606 119.654 25.6971 119.472 25.729C119.294 25.7609 119.089 25.7769 118.856 25.7769C118.478 25.7769 118.143 25.7108 117.852 25.5786C117.56 25.4419 117.332 25.2209 117.168 24.9155C117.004 24.6102 116.922 24.2046 116.922 23.6987V16.4321ZM122.787 15.1401V25.6401H121.146V15.1401H122.787ZM122.5 21.6685L121.967 21.6616C121.971 21.1512 122.042 20.6795 122.179 20.2466C122.32 19.8136 122.516 19.4377 122.767 19.1187C123.022 18.7951 123.327 18.5467 123.683 18.3735C124.038 18.1958 124.432 18.1069 124.865 18.1069C125.23 18.1069 125.558 18.1571 125.85 18.2573C126.146 18.3576 126.401 18.5194 126.615 18.7427C126.829 18.9614 126.991 19.2485 127.101 19.604C127.215 19.9549 127.271 20.3833 127.271 20.8892V25.6401H125.617V20.8755C125.617 20.52 125.565 20.2375 125.46 20.0278C125.36 19.8182 125.212 19.6678 125.016 19.5767C124.82 19.481 124.58 19.4331 124.298 19.4331C124.002 19.4331 123.74 19.4924 123.512 19.6108C123.288 19.7293 123.102 19.8911 122.951 20.0962C122.801 20.3013 122.687 20.5382 122.609 20.8071C122.536 21.076 122.5 21.3631 122.5 21.6685ZM140.232 20.5542V24.355C140.091 24.5418 139.87 24.7469 139.569 24.9702C139.273 25.189 138.879 25.3781 138.387 25.5376C137.895 25.6971 137.282 25.7769 136.548 25.7769C135.924 25.7769 135.352 25.672 134.832 25.4624C134.312 25.2482 133.864 24.936 133.485 24.5259C133.112 24.1157 132.822 23.6167 132.617 23.0288C132.412 22.4364 132.31 21.7619 132.31 21.0054V20.3149C132.31 19.563 132.403 18.8931 132.59 18.3052C132.781 17.7127 133.055 17.2114 133.41 16.8013C133.766 16.3911 134.194 16.0812 134.695 15.8716C135.201 15.6574 135.773 15.5503 136.411 15.5503C137.227 15.5503 137.901 15.687 138.435 15.9604C138.972 16.2293 139.387 16.603 139.679 17.0815C139.97 17.5601 140.155 18.1069 140.232 18.7222H138.551C138.496 18.3758 138.389 18.0659 138.229 17.7925C138.075 17.519 137.851 17.3049 137.56 17.1499C137.272 16.9904 136.899 16.9106 136.438 16.9106C136.042 16.9106 135.693 16.9858 135.393 17.1362C135.092 17.2866 134.841 17.5076 134.641 17.7993C134.445 18.091 134.297 18.4465 134.196 18.8657C134.096 19.285 134.046 19.7635 134.046 20.3013V21.0054C134.046 21.5522 134.103 22.0376 134.217 22.4614C134.335 22.8853 134.504 23.243 134.723 23.5347C134.946 23.8263 135.217 24.0474 135.536 24.1978C135.855 24.3436 136.215 24.4165 136.616 24.4165C137.008 24.4165 137.329 24.3846 137.58 24.3208C137.831 24.2524 138.029 24.1727 138.175 24.0815C138.325 23.9858 138.441 23.8947 138.523 23.8081V21.8325H136.452V20.5542H140.232ZM143.732 18.2437V25.6401H142.078V18.2437H143.732ZM141.969 16.3022C141.969 16.0516 142.051 15.8442 142.215 15.6802C142.383 15.5116 142.616 15.4272 142.912 15.4272C143.204 15.4272 143.434 15.5116 143.603 15.6802C143.771 15.8442 143.855 16.0516 143.855 16.3022C143.855 16.5483 143.771 16.7534 143.603 16.9175C143.434 17.0815 143.204 17.1636 142.912 17.1636C142.616 17.1636 142.383 17.0815 142.215 16.9175C142.051 16.7534 141.969 16.5483 141.969 16.3022ZM148.928 18.2437V19.4468H144.758V18.2437H148.928ZM145.961 16.4321H147.608V23.5962C147.608 23.8241 147.64 23.9995 147.704 24.1226C147.772 24.241 147.866 24.3208 147.984 24.3618C148.103 24.4028 148.242 24.4233 148.401 24.4233C148.515 24.4233 148.625 24.4165 148.729 24.4028C148.834 24.3892 148.919 24.3755 148.982 24.3618L148.989 25.6196C148.853 25.6606 148.693 25.6971 148.511 25.729C148.333 25.7609 148.128 25.7769 147.896 25.7769C147.517 25.7769 147.182 25.7108 146.891 25.5786C146.599 25.4419 146.371 25.2209 146.207 24.9155C146.043 24.6102 145.961 24.2046 145.961 23.6987V16.4321ZM156.939 19.8433V21.2036H151.655V19.8433H156.939ZM152.079 15.687V25.6401H150.363V15.687H152.079ZM158.259 15.687V25.6401H156.55V15.687H158.259ZM164.589 23.897V18.2437H166.243V25.6401H164.685L164.589 23.897ZM164.821 22.3589L165.375 22.3452C165.375 22.842 165.32 23.3 165.211 23.7192C165.102 24.134 164.933 24.4963 164.705 24.8062C164.477 25.1115 164.186 25.3507 163.83 25.5239C163.475 25.6925 163.049 25.7769 162.552 25.7769C162.192 25.7769 161.861 25.7244 161.561 25.6196C161.26 25.5148 161 25.353 160.781 25.1343C160.567 24.9155 160.401 24.6307 160.282 24.2798C160.164 23.9289 160.104 23.5096 160.104 23.022V18.2437H161.752V23.0356C161.752 23.3045 161.784 23.5301 161.848 23.7124C161.911 23.8901 161.998 24.0337 162.107 24.1431C162.217 24.2524 162.344 24.3299 162.49 24.3755C162.636 24.4211 162.791 24.4438 162.955 24.4438C163.424 24.4438 163.794 24.3527 164.062 24.1704C164.336 23.9836 164.53 23.7329 164.644 23.4185C164.762 23.104 164.821 22.7508 164.821 22.3589ZM167.938 15.1401H169.586V24.061L169.429 25.6401H167.938V15.1401ZM174.412 21.8735V22.0171C174.412 22.564 174.351 23.0675 174.228 23.5278C174.109 23.9836 173.927 24.38 173.681 24.7173C173.439 25.0545 173.138 25.3166 172.778 25.5034C172.423 25.6857 172.01 25.7769 171.541 25.7769C171.081 25.7769 170.68 25.6903 170.338 25.5171C169.996 25.3439 169.709 25.0978 169.477 24.7788C169.249 24.4598 169.064 24.0793 168.923 23.6372C168.782 23.1951 168.681 22.7075 168.622 22.1743V21.7163C168.681 21.1785 168.782 20.6909 168.923 20.2534C169.064 19.8114 169.249 19.4308 169.477 19.1118C169.709 18.7882 169.994 18.5399 170.331 18.3667C170.673 18.1935 171.072 18.1069 171.527 18.1069C172.001 18.1069 172.418 18.1981 172.778 18.3804C173.143 18.5627 173.446 18.8224 173.688 19.1597C173.929 19.4924 174.109 19.8888 174.228 20.3491C174.351 20.8094 174.412 21.3175 174.412 21.8735ZM172.765 22.0171V21.8735C172.765 21.5409 172.737 21.2287 172.683 20.937C172.628 20.6408 172.537 20.381 172.409 20.1577C172.286 19.9344 172.118 19.759 171.903 19.6313C171.694 19.4992 171.432 19.4331 171.117 19.4331C170.826 19.4331 170.575 19.4832 170.365 19.5835C170.156 19.6838 169.98 19.8205 169.839 19.9937C169.698 20.1668 169.586 20.3674 169.504 20.5952C169.426 20.8231 169.374 21.0692 169.347 21.3335V22.5708C169.388 22.9126 169.474 23.2271 169.606 23.5142C169.743 23.7967 169.935 24.0246 170.181 24.1978C170.427 24.3664 170.743 24.4507 171.131 24.4507C171.436 24.4507 171.694 24.3892 171.903 24.2661C172.113 24.1431 172.279 23.9722 172.402 23.7534C172.53 23.5301 172.621 23.2703 172.676 22.9741C172.735 22.6779 172.765 22.3589 172.765 22.0171Z" fill="#1F1F1F"/>
<defs>
<clipPath id="clip0_272_236">
<rect width="20" height="19" fill="white" transform="translate(14 11.1401)"/>
</clipPath>
</defs>
</svg>
