<svg width="1010" height="576" viewBox="0 0 1010 576" fill="none" xmlns="http://www.w3.org/2000/svg">
<path d="M954.287 428C985.087 428 1009.89 453 1009.89 484C1009.89 514 985.087 539.2 954.287 539.2C923.487 539.2 898.688 514 898.688 484C898.688 453 923.487 428 954.287 428ZM954.088 446.4C933.688 446.4 917.088 463 917.088 483.4C917.088 504 933.688 520.8 954.088 520.8C974.888 520.8 991.288 504 991.288 483.4C991.288 463 974.888 446.4 954.088 446.4Z" fill="#A17171"/>
<path d="M818.627 474.8L862.627 536H842.027L808.027 489.4L785.627 520V536H767.227V396H785.627V489H788.227L829.627 431.2H850.027L818.627 474.8Z" fill="#A17171"/>
<path d="M713.2 536.2H695.4L691 520.6C681 532 666.2 539.2 649.6 539.2C618.8 539.2 594 514 594 484C594 453 618.8 428 649.6 428C680.4 428 705.2 453 705.2 484C705.2 489.4 704.4 494.6 703 499.4L713.2 536.2ZM649.4 520.8C670.2 520.8 686.6 504 686.6 483.4C686.6 463 670.2 446.4 649.4 446.4C629 446.4 612.4 463 612.4 483.4C612.4 504 629 520.8 649.4 520.8Z" fill="#A17171"/>
<path d="M528.22 396H546.02V484C546.02 514 521.22 539.2 490.42 539.2C459.62 539.2 434.82 514 434.82 484C434.82 453 459.62 428 490.42 428C505.02 428 518.22 433.6 528.22 442.8V396ZM490.62 520.8C511.02 520.8 527.62 504 527.62 483.4C527.62 463 511.02 446.4 490.62 446.4C469.82 446.4 453.42 463 453.42 483.4C453.42 504 469.82 520.8 490.62 520.8Z" fill="#A17171"/>
<path d="M340.956 428.2C371.556 428.2 396.756 453.2 396.756 484V536H378.356V484C378.356 463.2 361.756 446.4 340.956 446.4C320.156 446.4 303.556 463.2 303.556 484V536H285.156V484C285.156 453.2 310.356 428.2 340.956 428.2Z" fill="#A17171"/>
<path d="M191.592 428C222.392 428 247.192 453 247.192 484C247.192 514 222.392 539.2 191.592 539.2C160.792 539.2 135.992 514 135.992 484C135.992 453 160.792 428 191.592 428ZM191.392 446.4C170.992 446.4 154.392 463 154.392 483.4C154.392 504 170.992 520.8 191.392 520.8C212.192 520.8 228.592 504 228.592 483.4C228.592 463 212.192 446.4 191.392 446.4Z" fill="#A17171"/>
<path d="M77.9484 431.2H95.9484L56.9484 536L41.7484 576H23.7484L38.7484 535.6L0.148438 431.2H18.1484L48.5484 509L77.9484 431.2Z" fill="#A17171"/>
<path d="M333.48 320C310.67 316.033 289.409 288.595 283.232 246.28C270.877 161.651 329.581 29.418 400.588 15.5336C471.596 1.64912 577.45 43.9636 591.335 163.965C596.498 208.594 585.592 244.996 577.45 269.421C575.136 276.363 577.45 288.595 591.335 288.595C609.953 288.595 732.163 213.552 723.568 145.452C717.98 101.184 686.212 92.8899 678.609 89.9146" stroke="#A17171" stroke-width="26" stroke-linecap="round"/>
<path d="M462.477 156.493L463.662 171.238" stroke="#A17171" stroke-width="26" stroke-linecap="round"/>
<path d="M513.25 150.411C513.911 157.353 514.4 164.986 514.4 164.986" stroke="#A17171" stroke-width="26" stroke-linecap="round"/>
</svg>
