<svg xmlns="http://www.w3.org/2000/svg" width="1154" height="204" fill="none"><path fill="currentColor" fill-rule="evenodd" d="M190.764 101.354c-7.908-68.005-67.867-91.836-107.953-84.036-8.808 1.713-17.885 7.236-26.61 16.132-8.684 8.853-16.605 20.636-23.098 33.958-13.074 26.821-19.67 58.405-16.162 82.311 1.755 11.963 5.599 21.406 10.244 27.945 4.69 6.603 9.815 9.774 14.144 10.523 4.355.754 7.272 4.878 6.514 9.212-.757 4.333-4.901 7.236-9.256 6.482-9.715-1.681-18.157-8.13-24.473-17.022C7.753 177.905 3.149 165.981 1.1 152.02-3 124.077 4.674 89.23 18.699 60.456c7.056-14.476 15.893-27.781 26.045-38.132 10.108-10.306 21.944-18.1 34.995-20.64 47.351-9.213 117.736 18.806 126.925 97.84 3.388 29.133-3.802 52.804-8.906 68.041a2.2 2.2 0 0 0-.067.705c.011.209.044.363.073.464.163.042.463.095.95.095-.121 0-.099-.006.088-.057.406-.11 1.591-.43 3.77-1.358 2.764-1.177 6.325-2.974 10.422-5.343 8.186-4.732 18.099-11.505 27.5-19.526 9.435-8.052 18.079-17.127 23.999-26.411 5.957-9.343 8.694-18.154 7.694-26.04-1.463-11.533-6.188-17.76-10.553-21.374-3.921-3.246-7.733-4.631-10.596-5.672-.538-.196-1.043-.379-1.508-.56-4.116-1.603-6.148-6.223-4.537-10.32 1.611-4.095 6.254-6.117 10.37-4.514.21.082.504.186.873.316 2.694.95 9.344 3.296 15.635 8.504 7.445 6.163 14.22 16.037 16.197 31.625 1.646 12.975-3.038 25.557-10.059 36.569-7.058 11.07-16.949 21.311-27.095 29.969-10.182 8.687-20.898 16.016-29.879 21.208-4.486 2.593-8.643 4.714-12.166 6.214-3.109 1.324-6.906 2.699-10.155 2.699-7.074 0-12.421-3.369-15.128-8.592-2.37-4.573-2.31-9.77-1.014-13.638 4.921-14.691 11.162-35.624 8.191-61.174M149.88 84.206c4.401-.417 8.308 2.795 8.727 7.174.211 2.205.393 4.5.521 6.228a371 371 0 0 1 .192 2.722l.015.219s0 .005-7.988.515l7.988-.515c.283 4.39-3.064 8.182-7.475 8.463-4.412.282-8.217-3.048-8.5-7.438l-.013-.194-.038-.571a376 376 0 0 0-.145-2.028 287 287 0 0 0-.493-5.891c-.419-4.38 2.809-8.267 7.209-8.684m-31.143 3.716c4.407-.353 8.266 2.916 8.62 7.3l.73 9.034c.354 4.384-2.93 8.225-7.337 8.577-4.406.353-8.265-2.916-8.619-7.3l-.73-9.034c-.354-4.384 2.93-8.225 7.336-8.577" clip-rule="evenodd"/><path fill="currentColor" d="M1110.21 56.926c24.26 0 43.79 19.428 43.79 43.52 0 23.314-19.53 42.898-43.79 42.898s-43.79-19.584-43.79-42.898c0-24.092 19.53-43.52 43.79-43.52m-.16 14.3c-16.07 0-29.14 12.9-29.14 28.753 0 16.01 13.07 29.066 29.14 29.066 16.38 0 29.3-13.056 29.3-29.066 0-15.853-12.92-28.754-29.3-28.754m-106.69 22.071 34.66 47.561h-16.23l-26.778-36.215-17.643 23.781v12.434h-14.492v-108.8h14.492v72.274h2.048l32.603-44.918h16.07zm-83.035 47.717h-14.019l-3.466-12.124c-7.876 8.86-19.533 14.455-32.607 14.455-24.259 0-43.791-19.584-43.791-42.898 0-24.092 19.532-43.52 43.791-43.52s43.791 19.428 43.791 43.52c0 4.196-.63 8.237-1.733 11.968zm-50.25-11.968c16.383 0 29.3-13.056 29.3-29.066 0-15.853-12.917-28.754-29.3-28.754-16.067 0-29.141 12.9-29.141 28.754 0 16.01 13.074 29.066 29.141 29.066m-95.442-96.988h14.019v68.389c0 23.314-19.533 42.898-43.791 42.898-24.259 0-43.791-19.584-43.791-42.898 0-24.092 19.532-43.52 43.791-43.52 11.499 0 21.896 4.352 29.772 11.501zm-29.615 96.988c16.068 0 29.142-13.056 29.142-29.066 0-15.853-13.074-28.754-29.142-28.754-16.382 0-29.299 12.9-29.299 28.754 0 16.01 12.917 29.066 29.299 29.066M627.141 57.081c24.101 0 43.949 19.429 43.949 43.365v40.411h-14.492v-40.411c0-16.165-13.075-29.22-29.457-29.22s-29.457 13.055-29.457 29.22v40.411h-14.492v-40.411c0-23.936 19.848-43.365 43.949-43.365M509.5 56.926c24.259 0 43.791 19.428 43.791 43.52 0 23.314-19.532 42.898-43.791 42.898s-43.791-19.584-43.791-42.898c0-24.092 19.533-43.52 43.791-43.52m-.158 14.3c-16.067 0-29.141 12.9-29.141 28.753 0 16.01 13.074 29.066 29.141 29.066 16.383 0 29.3-13.056 29.3-29.066 0-15.853-12.917-28.754-29.3-28.754m-89.349-11.812h14.177l-30.717 81.444-11.972 31.086h-14.177l11.814-31.397-30.402-81.133h14.177l23.944 60.461z"/></svg>
