<svg xmlns="http://www.w3.org/2000/svg" width="1010" height="576" fill="none"><path fill="#A17171" d="M954.287 428c30.8 0 55.603 25 55.603 56 0 30-24.803 55.2-55.603 55.2S898.688 514 898.688 484c0-31 24.799-56 55.599-56m-.199 18.4c-20.4 0-37 16.6-37 37 0 20.6 16.6 37.4 37 37.4 20.8 0 37.2-16.8 37.2-37.4 0-20.4-16.4-37-37.2-37m-135.461 28.4 44 61.2h-20.6l-34-46.6-22.4 30.6v16h-18.4V396h18.4v93h2.6l41.4-57.8h20.4zM713.2 536.2h-17.8l-4.4-15.6c-10 11.4-24.8 18.6-41.4 18.6-30.8 0-55.6-25.2-55.6-55.2 0-31 24.8-56 55.6-56s55.6 25 55.6 56c0 5.4-.8 10.6-2.2 15.4zm-63.8-15.4c20.8 0 37.2-16.8 37.2-37.4 0-20.4-16.4-37-37.2-37-20.4 0-37 16.6-37 37 0 20.6 16.6 37.4 37 37.4M528.22 396h17.8v88c0 30-24.8 55.2-55.6 55.2s-55.6-25.2-55.6-55.2c0-31 24.8-56 55.6-56 14.6 0 27.8 5.6 37.8 14.8zm-37.6 124.8c20.4 0 37-16.8 37-37.4 0-20.4-16.6-37-37-37-20.8 0-37.2 16.6-37.2 37 0 20.6 16.4 37.4 37.2 37.4m-149.664-92.6c30.6 0 55.8 25 55.8 55.8v52h-18.4v-52c0-20.8-16.6-37.6-37.4-37.6s-37.4 16.8-37.4 37.6v52h-18.4v-52c0-30.8 25.2-55.8 55.8-55.8m-149.364-.2c30.8 0 55.6 25 55.6 56 0 30-24.8 55.2-55.6 55.2s-55.6-25.2-55.6-55.2c0-31 24.8-56 55.6-56m-.2 18.4c-20.4 0-37 16.6-37 37 0 20.6 16.6 37.4 37 37.4 20.8 0 37.2-16.8 37.2-37.4 0-20.4-16.4-37-37.2-37M77.948 431.2h18l-39 104.8-15.2 40h-18l15-40.4-38.6-104.4h18l30.4 77.8z"/><path stroke="#A17171" stroke-linecap="round" stroke-width="26" d="M333.48 320c-22.81-3.967-44.071-31.405-50.248-73.72-12.355-84.629 46.349-216.862 117.356-230.746s176.862 28.43 190.747 148.431c5.163 44.629-5.743 81.031-13.885 105.456-2.314 6.942 0 19.174 13.885 19.174 18.618 0 140.828-75.043 132.233-143.143-5.588-44.268-37.356-52.562-44.959-55.537m-216.132 66.578 1.185 14.745"/><path stroke="#A17171" stroke-linecap="round" stroke-width="26" d="M513.25 150.411c.661 6.942 1.15 14.575 1.15 14.575"/></svg>