<svg width="1154" height="204" viewBox="0 0 1154 204" fill="none" xmlns="http://www.w3.org/2000/svg">
<path fill-rule="evenodd" clip-rule="evenodd" d="M190.764 101.354C182.856 33.3485 122.897 9.51815 82.8114 17.3177C74.0031 19.0315 64.9262 24.554 56.2002 33.4504C47.5174 42.3027 39.5963 54.0861 33.1028 67.4077C20.0289 94.2294 13.4338 125.813 16.941 149.719C18.6961 161.682 22.5396 171.125 27.1852 177.664C31.8753 184.267 37 187.438 41.3294 188.187C45.6845 188.941 48.6009 193.065 47.8435 197.399C47.0861 201.732 42.9417 204.635 38.5866 203.881C28.8723 202.2 20.4302 195.751 14.1136 186.859C7.7525 177.905 3.14934 165.981 1.10113 152.02C-2.99831 124.077 4.67457 89.2297 18.6999 60.4561C25.7561 45.9801 34.5925 32.6746 44.7445 22.3243C54.8533 12.0181 66.6886 4.22403 79.7395 1.68468C127.091 -7.52857 197.476 20.4895 206.665 99.5231C210.053 128.657 202.863 152.328 197.759 167.565C197.735 167.638 197.674 167.907 197.692 168.27C197.703 168.479 197.736 168.633 197.765 168.734C197.928 168.776 198.228 168.829 198.715 168.829C198.594 168.829 198.616 168.823 198.803 168.772C199.209 168.662 200.394 168.342 202.573 167.414C205.337 166.237 208.898 164.44 212.995 162.071C221.181 157.339 231.094 150.566 240.495 142.545C249.93 134.493 258.574 125.418 264.494 116.134C270.451 106.791 273.188 97.9802 272.188 90.094C270.725 78.5611 266 72.3335 261.635 68.7196C257.714 65.4743 253.902 64.0887 251.039 63.048C250.501 62.8525 249.996 62.6692 249.531 62.488C245.415 60.8852 243.383 56.2651 244.994 52.1689C246.605 48.0726 251.248 46.0514 255.364 47.6542C255.574 47.7358 255.868 47.8397 256.237 47.9698C258.931 48.92 265.581 51.2655 271.872 56.4741C279.317 62.637 286.092 72.5107 288.069 88.0994C289.715 101.074 285.031 113.656 278.01 124.668C270.952 135.738 261.061 145.979 250.915 154.637C240.733 163.324 230.017 170.653 221.036 175.845C216.55 178.438 212.393 180.559 208.87 182.059C205.761 183.383 201.964 184.758 198.715 184.758C191.641 184.758 186.294 181.389 183.587 176.166C181.217 171.593 181.277 166.396 182.573 162.528C187.494 147.837 193.735 126.904 190.764 101.354ZM149.88 84.206C154.281 83.789 158.188 87.0008 158.607 91.3796C158.818 93.5851 159 95.8796 159.128 97.6077C159.192 98.4753 159.244 99.2078 159.279 99.7248C159.297 99.9835 159.311 100.189 159.32 100.33L159.335 100.549C159.335 100.549 159.335 100.554 151.347 101.064L159.335 100.549C159.618 104.939 156.271 108.731 151.86 109.012C147.448 109.294 143.643 105.964 143.36 101.574L143.347 101.38C143.339 101.249 143.326 101.055 143.309 100.809C143.275 100.317 143.226 99.6141 143.164 98.781C143.04 97.1077 142.867 94.9374 142.671 92.8897C142.252 88.5108 145.48 84.623 149.88 84.206ZM118.737 87.9218C123.144 87.5693 127.003 90.8378 127.357 95.2224L128.087 104.256C128.441 108.64 125.157 112.481 120.75 112.833C116.344 113.186 112.485 109.917 112.131 105.533L111.401 96.4991C111.047 92.1145 114.331 88.2744 118.737 87.9218Z" fill="#A17171"/>
<path d="M1110.21 56.9257C1134.47 56.9257 1154 76.3543 1154 100.446C1154 123.76 1134.47 143.344 1110.21 143.344C1085.95 143.344 1066.42 123.76 1066.42 100.446C1066.42 76.3543 1085.95 56.9257 1110.21 56.9257ZM1110.05 71.2252C1093.98 71.2252 1080.91 84.1257 1080.91 99.9794C1080.91 115.989 1093.98 129.045 1110.05 129.045C1126.43 129.045 1139.35 115.989 1139.35 99.9794C1139.35 84.1257 1126.43 71.2252 1110.05 71.2252Z" fill="#A17171"/>
<path d="M1003.36 93.296L1038.02 140.857H1021.79L995.012 104.642L977.369 128.423V140.857H962.877V32.0571H977.369V104.331H979.417L1012.02 59.4126H1028.09L1003.36 93.296Z" fill="#A17171"/>
<path d="M920.325 141.013H906.306L902.84 128.889C894.964 137.749 883.307 143.344 870.233 143.344C845.974 143.344 826.442 123.76 826.442 100.446C826.442 76.3543 845.974 56.9257 870.233 56.9257C894.491 56.9257 914.024 76.3543 914.024 100.446C914.024 104.642 913.394 108.683 912.291 112.414L920.325 141.013ZM870.075 129.045C886.458 129.045 899.375 115.989 899.375 99.9794C899.375 84.1257 886.458 71.2252 870.075 71.2252C854.008 71.2252 840.934 84.1257 840.934 99.9794C840.934 115.989 854.008 129.045 870.075 129.045Z" fill="#A17171"/>
<path d="M774.633 32.0571H788.652V100.446C788.652 123.76 769.119 143.344 744.861 143.344C720.602 143.344 701.07 123.76 701.07 100.446C701.07 76.3543 720.602 56.9257 744.861 56.9257C756.36 56.9257 766.757 61.2777 774.633 68.4274V32.0571ZM745.018 129.045C761.086 129.045 774.16 115.989 774.16 99.9794C774.16 84.1257 761.086 71.2252 745.018 71.2252C728.636 71.2252 715.719 84.1257 715.719 99.9794C715.719 115.989 728.636 129.045 745.018 129.045Z" fill="#A17171"/>
<path d="M627.141 57.0811C651.242 57.0811 671.09 76.5097 671.09 100.446V140.857H656.598V100.446C656.598 84.2811 643.523 71.2252 627.141 71.2252C610.759 71.2252 597.684 84.2811 597.684 100.446V140.857H583.192V100.446C583.192 76.5097 603.04 57.0811 627.141 57.0811Z" fill="#A17171"/>
<path d="M509.5 56.9257C533.759 56.9257 553.291 76.3543 553.291 100.446C553.291 123.76 533.759 143.344 509.5 143.344C485.242 143.344 465.709 123.76 465.709 100.446C465.709 76.3543 485.242 56.9257 509.5 56.9257ZM509.342 71.2252C493.275 71.2252 480.201 84.1257 480.201 99.9794C480.201 115.989 493.275 129.045 509.342 129.045C525.725 129.045 538.642 115.989 538.642 99.9794C538.642 84.1257 525.725 71.2252 509.342 71.2252Z" fill="#A17171"/>
<path d="M419.993 59.4126H434.17L403.453 140.857L391.481 171.943H377.304L389.118 140.546L358.716 59.4126H372.893L396.837 119.874L419.993 59.4126Z" fill="#A17171"/>
</svg>
